<?xml version="1.0" encoding="UTF-8" standalone="no"?>
<!-- Created with Inkscape (http://www.inkscape.org/) -->

<svg
   xmlns:ns0="http://www.iki.fi/pav/software/textext/"
   xmlns:dc="http://purl.org/dc/elements/1.1/"
   xmlns:cc="http://creativecommons.org/ns#"
   xmlns:rdf="http://www.w3.org/1999/02/22-rdf-syntax-ns#"
   xmlns:svg="http://www.w3.org/2000/svg"
   xmlns="http://www.w3.org/2000/svg"
   xmlns:sodipodi="http://sodipodi.sourceforge.net/DTD/sodipodi-0.dtd"
   xmlns:inkscape="http://www.inkscape.org/namespaces/inkscape"
   width="210mm"
   height="297mm"
   viewBox="0 0 210 297"
   version="1.1"
   id="svg8"
   inkscape:version="0.92.1 r15371"
   sodipodi:docname="densidad-xi-linea.svg">
  <sodipodi:namedview
     id="base"
     pagecolor="#ffffff"
     bordercolor="#666666"
     borderopacity="1.0"
     inkscape:pageopacity="0.0"
     inkscape:pageshadow="2"
     inkscape:zoom="1.087256"
     inkscape:cx="386.30558"
     inkscape:cy="658.54623"
     inkscape:document-units="mm"
     inkscape:current-layer="layer1"
     showgrid="false"
     inkscape:window-width="1920"
     inkscape:window-height="1052"
     inkscape:window-x="1366"
     inkscape:window-y="0"
     inkscape:window-maximized="1" />
  <defs
     id="defs2">
    <marker
       inkscape:stockid="Arrow1Lend"
       orient="auto"
       refY="0.0"
       refX="0.0"
       id="marker4884"
       style="overflow:visible;"
       inkscape:isstock="true">
      <path
         id="path4882"
         d="M 0.0,0.0 L 5.0,-5.0 L -12.5,0.0 L 5.0,5.0 L 0.0,0.0 z "
         style="fill-rule:evenodd;stroke:#000000;stroke-width:1pt;stroke-opacity:1;fill:#000000;fill-opacity:1"
         transform="scale(0.8) rotate(180) translate(12.5,0)" />
    </marker>
    <marker
       inkscape:collect="always"
       inkscape:isstock="true"
       style="overflow:visible;"
       id="Arrow1Lend"
       refX="0.0"
       refY="0.0"
       orient="auto"
       inkscape:stockid="Arrow1Lend">
      <path
         transform="scale(0.8) rotate(180) translate(12.5,0)"
         style="fill-rule:evenodd;stroke:#000000;stroke-width:1pt;stroke-opacity:1;fill:#000000;fill-opacity:1"
         d="M 0.0,0.0 L 5.0,-5.0 L -12.5,0.0 L 5.0,5.0 L 0.0,0.0 z "
         id="path4589" />
    </marker>
  </defs>
  <metadata
     id="metadata5">
    <rdf:RDF>
      <cc:Work
         rdf:about="">
        <dc:format>image/svg+xml</dc:format>
        <dc:type
           rdf:resource="http://purl.org/dc/dcmitype/StillImage" />
        <dc:title></dc:title>
      </cc:Work>
    </rdf:RDF>
  </metadata>
  <g
     id="layer1"
     inkscape:groupmode="layer"
     inkscape:label="Layer 1">
    <path
       style="opacity:1;fill:none;stroke:#000000;stroke-width:0.8;stroke-linecap:butt;stroke-linejoin:miter;stroke-miterlimit:4;stroke-dasharray:none;stroke-opacity:1"
       d="m 96.992344,112.69886 v 71.8732"
       id="path3706"
       inkscape:connector-curvature="0" />
    <g
       style="opacity:1"
       transform="matrix(0.88372649,0,0,0.68233596,3.105568,58.512676)"
       id="g4532">
      <path
         style="fill:#010000;fill-opacity:1;stroke:#000000;stroke-width:0.30000001;stroke-linecap:butt;stroke-linejoin:miter;stroke-miterlimit:4;stroke-dasharray:none;stroke-opacity:1"
         d="M 81.517206,79.442604 V 184.74679"
         id="path3680"
         inkscape:connector-curvature="0" />
      <path
         inkscape:connector-curvature="0"
         id="path3697"
         d="M 91.673448,79.442604 V 184.74679"
         style="fill:#010000;fill-opacity:1;stroke:#000000;stroke-width:0.26458332px;stroke-linecap:butt;stroke-linejoin:miter;stroke-opacity:1" />
      <path
         style="fill:#010000;fill-opacity:1;stroke:#000000;stroke-width:0.30000001;stroke-linecap:butt;stroke-linejoin:miter;stroke-miterlimit:4;stroke-dasharray:none;stroke-opacity:1"
         d="M 98.355187,79.442604 V 184.74679"
         id="path3699"
         inkscape:connector-curvature="0" />
      <path
         inkscape:connector-curvature="0"
         id="path4513"
         d="M 102.36423,79.442604 V 184.74679"
         style="fill:#010000;fill-opacity:1;stroke:#000000;stroke-width:0.30000001;stroke-linecap:butt;stroke-linejoin:miter;stroke-miterlimit:4;stroke-dasharray:none;stroke-opacity:1" />
      <path
         inkscape:connector-curvature="0"
         id="path4515"
         d="M 67.084652,79.442604 V 184.74679"
         style="fill:#010000;fill-opacity:1;stroke:#000000;stroke-width:0.30000001;stroke-linecap:butt;stroke-linejoin:miter;stroke-miterlimit:4;stroke-dasharray:none;stroke-opacity:1" />
      <path
         style="fill:#010000;fill-opacity:1;stroke:#000000;stroke-width:0.30000001;stroke-linecap:butt;stroke-linejoin:miter;stroke-miterlimit:4;stroke-dasharray:none;stroke-opacity:1"
         d="M 49.444863,79.442604 V 184.74679"
         id="path4517"
         inkscape:connector-curvature="0" />
      <path
         inkscape:connector-curvature="0"
         id="path4519"
         d="M 27.261492,79.442604 V 184.74679"
         style="fill:#010000;fill-opacity:1;stroke:#000000;stroke-width:0.30000001;stroke-linecap:butt;stroke-linejoin:miter;stroke-miterlimit:4;stroke-dasharray:none;stroke-opacity:1" />
    </g>
    <g
       id="g4580"
       transform="matrix(-0.88372649,0,0,0.68233596,190.87912,58.512676)"
       style="opacity:1">
      <path
         inkscape:connector-curvature="0"
         id="path4566"
         d="M 81.517206,79.442604 V 184.74679"
         style="fill:#010000;fill-opacity:1;stroke:#000000;stroke-width:0.30000001;stroke-linecap:butt;stroke-linejoin:miter;stroke-miterlimit:4;stroke-dasharray:none;stroke-opacity:1" />
      <path
         style="fill:#010000;fill-opacity:1;stroke:#000000;stroke-width:0.26458332px;stroke-linecap:butt;stroke-linejoin:miter;stroke-opacity:1"
         d="M 91.673448,79.442604 V 184.74679"
         id="path4568"
         inkscape:connector-curvature="0" />
      <path
         inkscape:connector-curvature="0"
         id="path4570"
         d="M 98.355187,79.442604 V 184.74679"
         style="fill:#010000;fill-opacity:1;stroke:#000000;stroke-width:0.30000001;stroke-linecap:butt;stroke-linejoin:miter;stroke-miterlimit:4;stroke-dasharray:none;stroke-opacity:1" />
      <path
         style="fill:#010000;fill-opacity:1;stroke:#000000;stroke-width:0.30000001;stroke-linecap:butt;stroke-linejoin:miter;stroke-miterlimit:4;stroke-dasharray:none;stroke-opacity:1"
         d="M 102.36423,79.442604 V 184.74679"
         id="path4572"
         inkscape:connector-curvature="0" />
      <path
         style="fill:#010000;fill-opacity:1;stroke:#000000;stroke-width:0.30000001;stroke-linecap:butt;stroke-linejoin:miter;stroke-miterlimit:4;stroke-dasharray:none;stroke-opacity:1"
         d="M 67.084652,79.442604 V 184.74679"
         id="path4574"
         inkscape:connector-curvature="0" />
      <path
         inkscape:connector-curvature="0"
         id="path4576"
         d="M 49.444863,79.442604 V 184.74679"
         style="fill:#010000;fill-opacity:1;stroke:#000000;stroke-width:0.30000001;stroke-linecap:butt;stroke-linejoin:miter;stroke-miterlimit:4;stroke-dasharray:none;stroke-opacity:1" />
      <path
         style="fill:#010000;fill-opacity:1;stroke:#000000;stroke-width:0.30000001;stroke-linecap:butt;stroke-linejoin:miter;stroke-miterlimit:4;stroke-dasharray:none;stroke-opacity:1"
         d="M 27.261492,79.442604 V 184.74679"
         id="path4578"
         inkscape:connector-curvature="0" />
    </g>
    <path
       inkscape:connector-curvature="0"
       id="path4582"
       d="M 30.37448,101.97168 H 87.533226"
       style="fill:none;stroke:#000000;stroke-width:0.38826483;stroke-linecap:butt;stroke-linejoin:miter;stroke-miterlimit:4;stroke-dasharray:none;stroke-opacity:1;marker-end:url(#Arrow1Lend)" />
    <path
       style="fill:none;stroke:#000000;stroke-width:0.38826483;stroke-linecap:butt;stroke-linejoin:miter;stroke-miterlimit:4;stroke-dasharray:none;stroke-opacity:1;marker-end:url(#marker4884)"
       d="M 162.29538,101.97168 H 105.13663"
       id="path4880"
       inkscape:connector-curvature="0" />
    <g
       style="font-style:normal;font-variant:normal;font-weight:normal;font-stretch:normal;letter-spacing:normal;word-spacing:normal;text-anchor:start;fill:#000000;fill-opacity:1;fill-rule:evenodd;stroke:#000000;stroke-linecap:butt;stroke-linejoin:miter;stroke-miterlimit:10.43299961;stroke-dasharray:none;stroke-dashoffset:0;stroke-opacity:1"
       ns0:inkscapeversion="0.92.1"
       ns0:scale="2.5"
       ns0:preamble="/home/cardoso/.config/inkscape/extensions/default_packages.tex"
       ns0:text="$\\xi_{m}$"
       ns0:pdfconverter="pstoedit"
       ns0:texconverter="pdflatex"
       ns0:version="0.7.2"
       word-spacing="normal"
       letter-spacing="normal"
       font-size-adjust="none"
       font-stretch="normal"
       font-weight="normal"
       font-variant="normal"
       font-style="normal"
       stroke-miterlimit="10.433"
       xml:space="preserve"
       transform="matrix(0.881944,0,0,-0.881944,-39.653635,774.67857)"
       id="content"><path
         id="path4611"
         style="font-style:normal;font-variant:normal;font-weight:normal;font-stretch:normal;letter-spacing:normal;word-spacing:normal;text-anchor:start;fill:#000000;fill-opacity:1;fill-rule:evenodd;stroke:#000000;stroke-width:0;stroke-linecap:butt;stroke-linejoin:miter;stroke-miterlimit:10.43299961;stroke-dasharray:none;stroke-dashoffset:0;stroke-opacity:1"
         word-spacing="normal"
         stroke-miterlimit="10.433"
         letter-spacing="normal"
         font-weight="normal"
         font-variant="normal"
         font-style="normal"
         font-stretch="normal"
         font-size-adjust="none"
         d="m 150.25,660.28 -0.1,-0.07 -0.1,-0.07 -0.09,-0.07 -0.08,-0.07 -0.08,-0.07 -0.08,-0.08 -0.07,-0.07 -0.06,-0.07 -0.07,-0.07 -0.06,-0.08 -0.05,-0.07 -0.05,-0.07 -0.05,-0.07 -0.05,-0.07 -0.04,-0.07 -0.03,-0.07 -0.04,-0.07 -0.03,-0.07 -0.03,-0.06 -0.02,-0.07 -0.02,-0.06 -0.02,-0.06 -0.02,-0.06 -0.02,-0.06 -0.01,-0.05 -0.01,-0.06 -0.01,-0.05 -0.01,-0.04 v -0.05 l -0.01,-0.04 v -0.04 -0.03 c 0,-0.48 0.27,-0.76 0.29,-0.79 0.32,-0.32 0.41,-0.36 1.16,-0.64 l 1.2,-0.47 c 0.15,-0.07 0.35,-0.14 0.35,-0.43 0,-0.22 -0.18,-0.52 -0.49,-0.52 -0.43,0 -0.76,0.24 -0.87,0.31 -0.06,0.05 -0.07,0.05 -0.11,0.05 -0.08,0 -0.1,-0.06 -0.1,-0.11 0,-0.11 0.53,-0.47 1.08,-0.47 0.62,0 1.04,0.58 1.04,1.06 0,0.48 -0.37,0.66 -0.48,0.71 -0.14,0.05 -0.48,0.18 -0.61,0.23 -0.19,0.08 -0.39,0.15 -0.6,0.22 l -0.6,0.24 c -0.45,0.18 -0.75,0.47 -0.75,0.89 0,0.4 0.39,1.27 1.23,1.68 0.36,-0.12 0.67,-0.12 0.87,-0.12 0.3,0 0.93,0 0.93,0.3 0,0.25 -0.43,0.27 -0.82,0.27 l -0.01,-0.22 c 0.35,0 0.39,-0.01 0.57,-0.06 -0.08,-0.04 -0.18,-0.08 -0.64,-0.08 -0.23,0 -0.32,0 -0.49,0.08 v 0 c 0.23,0.06 0.44,0.06 0.56,0.06 l 0.01,0.22 c -0.18,0 -0.46,0 -0.83,-0.12 -0.26,0.26 -0.3,0.59 -0.3,0.78 0,0.55 0.36,1.32 1.1,1.69 0.18,-0.22 0.41,-0.22 0.64,-0.22 l 0.01,0.22 c -0.19,0 -0.31,0 -0.42,0.09 v 0 c 0.16,0.04 0.37,0.04 0.48,0.04 0.34,0 0.38,0 0.56,-0.05 -0.08,-0.03 -0.18,-0.08 -0.62,-0.08 l -0.01,-0.22 c 0.25,0 0.89,0 0.89,0.31 0,0.25 -0.44,0.26 -0.83,0.26 -0.13,0 -0.37,0 -0.63,-0.05 -0.03,0.09 -0.05,0.16 -0.05,0.33 0,0.14 0.05,0.35 0.05,0.37 0,0.08 -0.05,0.13 -0.12,0.13 -0.18,0 -0.18,-0.46 -0.18,-0.49 0,-0.2 0.06,-0.35 0.07,-0.39 -1.06,-0.29 -1.74,-1.09 -1.74,-1.85 0,-0.37 0.18,-0.79 0.65,-1.06 z"
         inkscape:connector-curvature="0" /><path
         id="path4613"
         style="font-style:normal;font-variant:normal;font-weight:normal;font-stretch:normal;letter-spacing:normal;word-spacing:normal;text-anchor:start;fill:#000000;fill-opacity:1;fill-rule:evenodd;stroke:#000000;stroke-width:0;stroke-linecap:butt;stroke-linejoin:miter;stroke-miterlimit:10.43299961;stroke-dasharray:none;stroke-dashoffset:0;stroke-opacity:1"
         word-spacing="normal"
         stroke-miterlimit="10.433"
         letter-spacing="normal"
         font-weight="normal"
         font-variant="normal"
         font-style="normal"
         font-stretch="normal"
         font-size-adjust="none"
         d="m 156.1,656.3 v -0.01 -0.01 l -0.01,-0.02 v -0.01 -0.02 l -0.01,-0.01 v -0.03 l -0.01,-0.04 -0.01,-0.03 -0.01,-0.03 v -0.01 l -0.01,-0.02 v -0.01 -0.02 l -0.01,-0.01 V 656 655.99 l -0.01,-0.01 v -0.02 -0.01 -0.01 l -0.01,-0.01 v -0.01 0 -0.01 -0.01 0 -0.01 c 0,-0.15 0.12,-0.22 0.23,-0.22 0.13,0 0.24,0.09 0.28,0.15 0.03,0.07 0.09,0.29 0.12,0.44 0.04,0.13 0.12,0.45 0.16,0.62 0.04,0.15 0.08,0.31 0.12,0.47 0.07,0.3 0.07,0.31 0.21,0.53 0.23,0.34 0.58,0.73 1.12,0.73 0.39,0 0.41,-0.32 0.41,-0.48 0,-0.42 -0.3,-1.19 -0.41,-1.48 -0.07,-0.2 -0.1,-0.26 -0.1,-0.38 0,-0.37 0.31,-0.6 0.66,-0.6 0.7,0 1.01,0.96 1.01,1.06 0,0.1 -0.09,0.1 -0.11,0.1 -0.1,0 -0.11,-0.05 -0.14,-0.12 -0.16,-0.56 -0.46,-0.84 -0.74,-0.84 -0.15,0 -0.17,0.09 -0.17,0.24 0,0.16 0.03,0.25 0.16,0.56 0.08,0.22 0.37,0.95 0.37,1.35 0,0.11 0,0.4 -0.26,0.6 -0.12,0.09 -0.32,0.19 -0.65,0.19 -0.63,0 -1.01,-0.41 -1.24,-0.71 -0.05,0.6 -0.55,0.71 -0.91,0.71 -0.58,0 -0.97,-0.36 -1.18,-0.64 -0.05,0.49 -0.46,0.64 -0.75,0.64 -0.3,0 -0.46,-0.22 -0.55,-0.38 -0.15,-0.26 -0.25,-0.65 -0.25,-0.69 0,-0.09 0.1,-0.09 0.12,-0.09 0.1,0 0.1,0.02 0.15,0.21 0.11,0.41 0.24,0.75 0.51,0.75 0.19,0 0.23,-0.15 0.23,-0.34 0,-0.13 -0.06,-0.39 -0.11,-0.57 -0.05,-0.19 -0.12,-0.48 -0.15,-0.63 l -0.23,-0.89 c -0.02,-0.09 -0.07,-0.27 -0.07,-0.29 0,-0.15 0.13,-0.22 0.24,-0.22 0.13,0 0.24,0.09 0.28,0.15 0.03,0.07 0.09,0.29 0.12,0.44 0.03,0.13 0.11,0.45 0.15,0.62 0.05,0.15 0.09,0.31 0.12,0.47 0.08,0.28 0.09,0.34 0.3,0.62 0.19,0.28 0.52,0.64 1.04,0.64 0.41,0 0.42,-0.35 0.42,-0.48 0,-0.18 -0.02,-0.27 -0.12,-0.66 z"
         inkscape:connector-curvature="0" /></g>  </g>
</svg>
