<?xml version="1.0" encoding="UTF-8" standalone="no"?>
<!-- Created with Inkscape (http://www.inkscape.org/) -->

<svg
   xmlns:ns0="http://www.iki.fi/pav/software/textext/"
   xmlns:dc="http://purl.org/dc/elements/1.1/"
   xmlns:cc="http://creativecommons.org/ns#"
   xmlns:rdf="http://www.w3.org/1999/02/22-rdf-syntax-ns#"
   xmlns:svg="http://www.w3.org/2000/svg"
   xmlns="http://www.w3.org/2000/svg"
   xmlns:xlink="http://www.w3.org/1999/xlink"
   xmlns:sodipodi="http://sodipodi.sourceforge.net/DTD/sodipodi-0.dtd"
   xmlns:inkscape="http://www.inkscape.org/namespaces/inkscape"
   sodipodi:docname="grafica-rearward.svg"
   inkscape:version="0.91 r13725"
   id="svg8"
   version="1.1"
   viewBox="0 0 210 297"
   height="297mm"
   width="210mm">
  <sodipodi:namedview
     showguides="true"
     inkscape:window-maximized="1"
     inkscape:window-y="0"
     inkscape:window-x="0"
     inkscape:window-height="709"
     inkscape:window-width="1366"
     inkscape:snap-intersection-paths="false"
     showgrid="false"
     inkscape:current-layer="g7152"
     inkscape:document-units="mm"
     inkscape:cy="423.87671"
     inkscape:cx="336.5106"
     inkscape:zoom="0.9899495"
     inkscape:pageshadow="2"
     inkscape:pageopacity="0.0"
     borderopacity="1.0"
     bordercolor="#666666"
     pagecolor="#ffffff"
     id="base" />
  <defs
     id="defs2">
    <marker
       inkscape:stockid="Arrow1Send"
       orient="auto"
       refY="0.0"
       refX="0.0"
       id="marker5167"
       style="overflow:visible;"
       inkscape:isstock="true">
      <path
         id="path5165"
         d="M 0.0,0.0 L 5.0,-5.0 L -12.5,0.0 L 5.0,5.0 L 0.0,0.0 z "
         style="fill-rule:evenodd;stroke:#000000;stroke-width:1pt;stroke-opacity:1;fill:#000000;fill-opacity:1"
         transform="scale(0.2) rotate(180) translate(6,0)" />
    </marker>
    <marker
       inkscape:stockid="Arrow1Sstart"
       orient="auto"
       refY="0.0"
       refX="0.0"
       id="marker5109"
       style="overflow:visible"
       inkscape:isstock="true">
      <path
         id="path5107"
         d="M 0.0,0.0 L 5.0,-5.0 L -12.5,0.0 L 5.0,5.0 L 0.0,0.0 z "
         style="fill-rule:evenodd;stroke:#000000;stroke-width:1pt;stroke-opacity:1;fill:#000000;fill-opacity:1"
         transform="scale(0.2) translate(6,0)" />
    </marker>
    <marker
       inkscape:stockid="Arrow1Send"
       orient="auto"
       refY="0.0"
       refX="0.0"
       id="Arrow1Send"
       style="overflow:visible;"
       inkscape:isstock="true">
      <path
         id="path4662"
         d="M 0.0,0.0 L 5.0,-5.0 L -12.5,0.0 L 5.0,5.0 L 0.0,0.0 z "
         style="fill-rule:evenodd;stroke:#000000;stroke-width:1pt;stroke-opacity:1;fill:#000000;fill-opacity:1"
         transform="scale(0.2) rotate(180) translate(6,0)" />
    </marker>
    <marker
       inkscape:stockid="Arrow1Sstart"
       orient="auto"
       refY="0.0"
       refX="0.0"
       id="Arrow1Sstart"
       style="overflow:visible"
       inkscape:isstock="true">
      <path
         id="path4659"
         d="M 0.0,0.0 L 5.0,-5.0 L -12.5,0.0 L 5.0,5.0 L 0.0,0.0 z "
         style="fill-rule:evenodd;stroke:#000000;stroke-width:1pt;stroke-opacity:1;fill:#000000;fill-opacity:1"
         transform="scale(0.2) translate(6,0)" />
    </marker>
    <marker
       inkscape:isstock="true"
       style="overflow:visible;"
       id="Arrow1Mend"
       refX="0.0"
       refY="0.0"
       orient="auto"
       inkscape:stockid="Arrow1Mend">
      <path
         transform="scale(0.4) rotate(180) translate(10,0)"
         style="fill-rule:evenodd;stroke:#000000;stroke-width:1pt;stroke-opacity:1;fill:#000000;fill-opacity:1"
         d="M 0.0,0.0 L 5.0,-5.0 L -12.5,0.0 L 5.0,5.0 L 0.0,0.0 z "
         id="path4498" />
    </marker>
    <marker
       inkscape:stockid="Arrow1Mstart"
       orient="auto"
       refY="0.0"
       refX="0.0"
       id="marker5727"
       style="overflow:visible"
       inkscape:isstock="true">
      <path
         id="path5725"
         d="M 0.0,0.0 L 5.0,-5.0 L -12.5,0.0 L 5.0,5.0 L 0.0,0.0 z "
         style="fill-rule:evenodd;stroke:#000000;stroke-width:1pt;stroke-opacity:1;fill:#000000;fill-opacity:1"
         transform="scale(0.4) translate(10,0)" />
    </marker>
    <marker
       inkscape:collect="always"
       inkscape:isstock="true"
       style="overflow:visible"
       id="Arrow1Mstart"
       refX="0.0"
       refY="0.0"
       orient="auto"
       inkscape:stockid="Arrow1Mstart">
      <path
         transform="scale(0.4) translate(10,0)"
         style="fill-rule:evenodd;stroke:#000000;stroke-width:1pt;stroke-opacity:1;fill:#000000;fill-opacity:1"
         d="M 0.0,0.0 L 5.0,-5.0 L -12.5,0.0 L 5.0,5.0 L 0.0,0.0 z "
         id="path4495" />
    </marker>
    <marker
       inkscape:stockid="Arrow1Mstart"
       orient="auto"
       refY="0.0"
       refX="0.0"
       id="marker4827"
       style="overflow:visible"
       inkscape:isstock="true">
      <path
         id="path4825"
         d="M 0.0,0.0 L 5.0,-5.0 L -12.5,0.0 L 5.0,5.0 L 0.0,0.0 z "
         style="fill-rule:evenodd;stroke:#000000;stroke-width:1pt;stroke-opacity:1;fill:#000000;fill-opacity:1"
         transform="scale(0.4) translate(10,0)" />
    </marker>
  </defs>
  <metadata
     id="metadata5">
    <rdf:RDF>
      <cc:Work
         rdf:about="">
        <dc:format>image/svg+xml</dc:format>
        <dc:type
           rdf:resource="http://purl.org/dc/dcmitype/StillImage" />
        <dc:title />
      </cc:Work>
    </rdf:RDF>
  </metadata>
  <g
     id="layer1"
     inkscape:groupmode="layer"
     inkscape:label="Layer 1">
    <path
       inkscape:connector-curvature="0"
       id="path5695"
       d="m 27.970239,141.65178 v 76.54018"
       style="fill:none;stroke:#000000;stroke-width:0.265;stroke-linecap:butt;stroke-linejoin:miter;stroke-opacity:1;stroke-miterlimit:4;stroke-dasharray:none;marker-start:url(#Arrow1Mstart)" />
    <path
       inkscape:connector-curvature="0"
       id="path5697"
       d="M 27.970239,218.19196 H 109.23512"
       style="fill:none;stroke:#000000;stroke-width:0.265;stroke-linecap:butt;stroke-linejoin:miter;stroke-opacity:1;stroke-miterlimit:4;stroke-dasharray:none;marker-end:url(#Arrow1Mend)" />
    <path
       sodipodi:nodetypes="czzc"
       inkscape:connector-curvature="0"
       id="path5803"
       d="m 27.970239,218.19196 c 0,0 8.999022,-31.56167 17.866484,-41.19598 8.867462,-9.63431 19.935474,-15.62322 29.666917,-15.90254 9.731443,-0.27932 22.450641,10.42351 22.450641,10.42351"
       style="fill:none;stroke:#000000;stroke-width:0.7;stroke-linecap:butt;stroke-linejoin:miter;stroke-opacity:1;stroke-miterlimit:4;stroke-dasharray:none" />
    <ellipse
       ry="0.51384795"
       rx="0.47005063"
       cy="161.08806"
       cx="75.881142"
       id="path5807"
       style="fill:#000000;fill-opacity:1;stroke:#000000;stroke-width:0.69999999;stroke-miterlimit:4;stroke-dasharray:none;stroke-dashoffset:0;stroke-opacity:1" />
    <path
       inkscape:connector-curvature="0"
       id="path5813"
       d="m 43.945424,175.62423 c 0.286171,-0.12265 25.819043,-16.29177 25.819043,-16.29177"
       style="fill:none;stroke:#ff0000;stroke-width:0.5;stroke-linecap:butt;stroke-linejoin:miter;stroke-miterlimit:4;stroke-dasharray:none;stroke-opacity:1"
       sodipodi:nodetypes="cc" />
    <ellipse
       style="fill:#000000;fill-opacity:1;stroke:#000000;stroke-width:0.69999999;stroke-miterlimit:4;stroke-dasharray:none;stroke-dashoffset:0;stroke-opacity:1"
       id="ellipse5809"
       cx="57.705452"
       cy="167.16544"
       rx="0.47005063"
       ry="0.51384795" />
    <ellipse
       ry="0.51384795"
       rx="0.47005063"
       cy="186.22346"
       cx="39.973404"
       id="ellipse5811"
       style="fill:#000000;fill-opacity:1;stroke:#000000;stroke-width:0.69999999;stroke-miterlimit:4;stroke-dasharray:none;stroke-dashoffset:0;stroke-opacity:1" />
    <path
       inkscape:connector-curvature="0"
       id="path5815"
       d="M 40.091327,186.11542 57.706812,167.16845"
       style="fill:none;stroke:#0050c5;stroke-width:0.5;stroke-linecap:butt;stroke-linejoin:miter;stroke-miterlimit:4;stroke-dasharray:4, 0.5;stroke-dashoffset:0;stroke-opacity:1"
       sodipodi:nodetypes="cc" />
    <g
       transform="matrix(0.35907026,-0.17626273,0.17626273,0.35907026,-55.992452,152.64779)"
       ns0:text="Derivada"
       ns0:preamble="/home/cardoso/Documents/Tesis/Imagenes/preambulo-inkscape.txt"
       id="g7152">
      <defs
         id="defs7127">
        <g
           id="g7125">
          <symbol
             style="overflow:visible"
             overflow="visible"
             id="textext-a9d6c758-0">
            <path
               inkscape:connector-curvature="0"
               style="stroke:none"
               d=""
               id="path7101" />
          </symbol>
          <symbol
             style="overflow:visible"
             overflow="visible"
             id="textext-a9d6c758-1">
            <path
               inkscape:connector-curvature="0"
               style="stroke:none"
               d="m 1.03125,-1.09375 c 0,0.71875 -0.109375,0.859375 -0.875,0.90625 V 0 H 2.984375 C 4.140625,0 5.1875,-0.328125 5.8125,-0.890625 6.453125,-1.46875 6.828125,-2.359375 6.828125,-3.328125 6.828125,-4.234375 6.53125,-5 5.984375,-5.546875 5.296875,-6.234375 4.21875,-6.59375 2.84375,-6.59375 h -2.6875 v 0.1875 c 0.796875,0.0625 0.875,0.15625 0.875,0.890625 z m 1.015625,-4.75 c 0,-0.3125 0.109375,-0.390625 0.53125,-0.390625 0.84375,0 1.5,0.15625 1.984375,0.5 0.765625,0.546875 1.171875,1.390625 1.171875,2.46875 0,1.1875 -0.40625,2.015625 -1.203125,2.484375 C 4.015625,-0.484375 3.4375,-0.375 2.578125,-0.375 c -0.40625,0 -0.53125,-0.078125 -0.53125,-0.40625 z m 0,0"
               id="path7104" />
          </symbol>
          <symbol
             style="overflow:visible"
             overflow="visible"
             id="textext-a9d6c758-2">
            <path
               inkscape:connector-curvature="0"
               style="stroke:none"
               d="M 4.0625,-1.640625 C 3.59375,-0.875 3.15625,-0.59375 2.515625,-0.59375 c -0.5625,0 -0.984375,-0.28125 -1.28125,-0.859375 -0.171875,-0.375 -0.25,-0.703125 -0.265625,-1.3125 h 3.0625 c -0.078125,-0.640625 -0.171875,-0.9375 -0.421875,-1.25 -0.296875,-0.359375 -0.765625,-0.5625 -1.28125,-0.5625 -0.5,0 -0.96875,0.171875 -1.34375,0.515625 C 0.515625,-3.65625 0.25,-2.953125 0.25,-2.140625 0.25,-0.75 0.96875,0.09375 2.109375,0.09375 c 0.953125,0 1.703125,-0.578125 2.125,-1.65625 z m -3.078125,-1.4375 c 0.109375,-0.78125 0.453125,-1.15625 1.0625,-1.15625 0.609375,0 0.84375,0.28125 0.96875,1.15625 z m 0,0"
               id="path7107" />
          </symbol>
          <symbol
             style="overflow:visible"
             overflow="visible"
             id="textext-a9d6c758-3">
            <path
               inkscape:connector-curvature="0"
               style="stroke:none"
               d="m 0.0625,-3.890625 c 0.140625,-0.03125 0.234375,-0.03125 0.359375,-0.03125 0.25,0 0.328125,0.15625 0.328125,0.59375 v 2.484375 c 0,0.5 -0.0625,0.578125 -0.703125,0.6875 V 0 H 2.4375 V -0.15625 C 1.765625,-0.171875 1.59375,-0.328125 1.59375,-0.890625 v -2.25 c 0,-0.3125 0.4375,-0.8125 0.703125,-0.8125 0.0625,0 0.140625,0.046875 0.25,0.140625 0.171875,0.140625 0.28125,0.203125 0.40625,0.203125 0.234375,0 0.390625,-0.171875 0.390625,-0.453125 0,-0.328125 -0.21875,-0.515625 -0.546875,-0.515625 -0.421875,0 -0.71875,0.21875 -1.203125,0.921875 V -4.5625 L 1.546875,-4.578125 c -0.53125,0.21875 -0.890625,0.34375 -1.484375,0.53125 z m 0,0"
               id="path7110" />
          </symbol>
          <symbol
             style="overflow:visible"
             overflow="visible"
             id="textext-a9d6c758-4">
            <path
               inkscape:connector-curvature="0"
               style="stroke:none"
               d="M 1.75,-4.578125 0.203125,-4.03125 v 0.140625 H 0.28125 c 0.125,-0.03125 0.25,-0.03125 0.34375,-0.03125 0.234375,0 0.328125,0.15625 0.328125,0.59375 v 2.3125 c 0,0.71875 -0.109375,0.828125 -0.796875,0.859375 V 0 H 2.515625 V -0.15625 C 1.859375,-0.203125 1.78125,-0.296875 1.78125,-1.015625 V -4.5625 Z M 1.28125,-6.8125 c -0.28125,0 -0.5,0.234375 -0.5,0.515625 0,0.28125 0.21875,0.5 0.5,0.5 0.28125,0 0.515625,-0.21875 0.515625,-0.5 0,-0.28125 -0.234375,-0.515625 -0.515625,-0.515625 z m 0,0"
               id="path7113" />
          </symbol>
          <symbol
             style="overflow:visible"
             overflow="visible"
             id="textext-a9d6c758-5">
            <path
               inkscape:connector-curvature="0"
               style="stroke:none"
               d="M 4.75,-4.484375 H 3.375 v 0.140625 c 0.3125,0.03125 0.46875,0.140625 0.46875,0.328125 0,0.09375 -0.03125,0.203125 -0.0625,0.296875 L 2.796875,-1.140625 1.78125,-3.6875 C 1.71875,-3.828125 1.6875,-3.96875 1.6875,-4.0625 c 0,-0.171875 0.109375,-0.25 0.453125,-0.28125 V -4.484375 H 0.1875 v 0.140625 c 0.375,0.03125 0.453125,0.125 0.90625,1.15625 l 1.203125,2.859375 C 2.3125,-0.265625 2.34375,-0.203125 2.375,-0.125 2.4375,0.0625 2.5,0.140625 2.546875,0.140625 c 0.0625,0 0.140625,-0.125 0.28125,-0.5 L 4.109375,-3.5625 c 0.28125,-0.671875 0.34375,-0.75 0.640625,-0.78125 z m 0,0"
               id="path7116" />
          </symbol>
          <symbol
             style="overflow:visible"
             overflow="visible"
             id="textext-a9d6c758-6">
            <path
               inkscape:connector-curvature="0"
               style="stroke:none"
               d="m 4.40625,-0.65625 c -0.171875,0.140625 -0.296875,0.1875 -0.4375,0.1875 -0.234375,0 -0.296875,-0.140625 -0.296875,-0.578125 v -1.9375 c 0,-0.53125 -0.046875,-0.8125 -0.203125,-1.046875 C 3.25,-4.390625 2.828125,-4.578125 2.234375,-4.578125 c -0.9375,0 -1.671875,0.484375 -1.671875,1.109375 0,0.234375 0.1875,0.421875 0.421875,0.421875 0.234375,0 0.453125,-0.1875 0.453125,-0.40625 0,-0.046875 -0.015625,-0.09375 -0.015625,-0.171875 -0.03125,-0.078125 -0.03125,-0.15625 -0.03125,-0.234375 0,-0.265625 0.3125,-0.484375 0.71875,-0.484375 0.484375,0 0.75,0.28125 0.75,0.828125 v 0.609375 c -1.53125,0.609375 -1.703125,0.6875 -2.125,1.078125 -0.21875,0.1875 -0.359375,0.53125 -0.359375,0.859375 0,0.625 0.4375,1.0625 1.046875,1.0625 0.4375,0 0.84375,-0.203125 1.453125,-0.71875 0.046875,0.515625 0.21875,0.71875 0.640625,0.71875 0.328125,0 0.546875,-0.109375 0.890625,-0.5 z m -1.546875,-0.5625 c 0,0.296875 -0.046875,0.390625 -0.25,0.515625 -0.25,0.140625 -0.53125,0.21875 -0.734375,0.21875 C 1.53125,-0.484375 1.25,-0.8125 1.25,-1.25 v -0.03125 c 0,-0.59375 0.40625,-0.953125 1.609375,-1.390625 z m 0,0"
               id="path7119" />
          </symbol>
          <symbol
             style="overflow:visible"
             overflow="visible"
             id="textext-a9d6c758-7">
            <path
               inkscape:connector-curvature="0"
               style="stroke:none"
               d="m 3.421875,0.09375 1.46875,-0.515625 v -0.15625 C 4.71875,-0.5625 4.6875,-0.5625 4.671875,-0.5625 c -0.359375,0 -0.4375,-0.109375 -0.4375,-0.578125 V -6.78125 L 4.171875,-6.8125 C 3.703125,-6.640625 3.34375,-6.546875 2.71875,-6.375 v 0.171875 c 0.078125,-0.015625 0.125,-0.015625 0.21875,-0.015625 0.359375,0 0.453125,0.09375 0.453125,0.5 v 1.5625 c -0.375,-0.3125 -0.65625,-0.421875 -1.046875,-0.421875 -1.140625,0 -2.078125,1.125 -2.078125,2.53125 0,1.28125 0.75,2.140625 1.84375,2.140625 0.5625,0 0.9375,-0.1875 1.28125,-0.65625 v 0.625 z m -0.03125,-1.109375 c 0,0.0625 -0.078125,0.1875 -0.171875,0.296875 -0.171875,0.203125 -0.421875,0.296875 -0.71875,0.296875 -0.828125,0 -1.375,-0.796875 -1.375,-2.015625 0,-1.125 0.484375,-1.875 1.25,-1.875 0.53125,0 1.015625,0.46875 1.015625,1 z m 0,0"
               id="path7122" />
          </symbol>
        </g>
      </defs>
      <g
         transform="matrix(0.78244865,-0.06116389,0.06116389,0.78244865,40.257486,60.782941)"
         inkscape:transform-center-y="0.01334498"
         inkscape:transform-center-x="0.44260562"
         id="textext-a9d6c758-8">
        <g
           style="fill:#000000;fill-opacity:1"
           id="g7137">
          <use
             height="100%"
             width="100%"
             xlink:href="#textext-a9d6c758-1"
             x="223.43201"
             y="134.765"
             id="use7129" />
          <use
             height="100%"
             width="100%"
             xlink:href="#textext-a9d6c758-2"
             x="230.625"
             y="134.765"
             id="use7131" />
          <use
             height="100%"
             width="100%"
             xlink:href="#textext-a9d6c758-3"
             x="235.04839"
             y="134.765"
             id="use7133" />
          <use
             height="100%"
             width="100%"
             xlink:href="#textext-a9d6c758-4"
             x="238.36594"
             y="134.765"
             id="use7135" />
        </g>
        <g
           style="fill:#000000;fill-opacity:1"
           id="g7141">
          <use
             height="100%"
             width="100%"
             xlink:href="#textext-a9d6c758-5"
             x="240.88647"
             y="134.765"
             id="use7139" />
        </g>
        <g
           style="fill:#000000;fill-opacity:1"
           id="g7149">
          <use
             height="100%"
             width="100%"
             xlink:href="#textext-a9d6c758-6"
             x="245.61871"
             y="134.765"
             id="use7143" />
          <use
             height="100%"
             width="100%"
             xlink:href="#textext-a9d6c758-7"
             x="250.0421"
             y="134.765"
             id="use7145" />
          <use
             height="100%"
             width="100%"
             xlink:href="#textext-a9d6c758-6"
             x="255.02341"
             y="134.765"
             id="use7147" />
        </g>
      </g>
      <g
         transform="rotate(20.321901,386.98892,11.161607)"
         ns0:text="$y$"
         ns0:preamble="/home/cardoso/Documents/Tesis/Imagenes/preambulo-inkscape.txt"
         id="g8090">
        <defs
           id="defs8083">
          <g
             id="g8081">
            <symbol
               style="overflow:visible"
               overflow="visible"
               id="textext-aef506da-0">
              <path
                 inkscape:connector-curvature="0"
                 style="stroke:none"
                 d=""
                 id="path8075" />
            </symbol>
            <symbol
               style="overflow:visible"
               overflow="visible"
               id="textext-aef506da-1">
              <path
                 inkscape:connector-curvature="0"
                 style="stroke:none"
                 d="m 0.15625,-3.984375 c 0.125,-0.03125 0.1875,-0.046875 0.296875,-0.046875 0.578125,0 0.71875,0.25 1.1875,1.96875 0.15625,0.640625 0.40625,1.8125 0.40625,1.984375 0,0.15625 -0.0625,0.3125 -0.21875,0.5 -0.296875,0.40625 -0.5,0.671875 -0.609375,0.78125 C 1,1.421875 0.890625,1.5 0.75,1.5 0.703125,1.5 0.625,1.46875 0.515625,1.390625 0.375,1.28125 0.265625,1.21875 0.15625,1.21875 c -0.21875,0 -0.390625,0.171875 -0.390625,0.390625 0,0.25 0.21875,0.4375 0.5,0.4375 0.640625,0 1.953125,-1.484375 3.03125,-3.46875 C 3.96875,-2.640625 4.25,-3.359375 4.25,-3.84375 4.25,-4.140625 4,-4.390625 3.703125,-4.390625 3.46875,-4.390625 3.3125,-4.25 3.3125,-4.03125 c 0,0.15625 0.078125,0.265625 0.28125,0.390625 0.1875,0.109375 0.25,0.203125 0.25,0.34375 0,0.390625 -0.359375,1.171875 -1.21875,2.578125 L 2.4375,-1.875 C 2.28125,-2.75 1.71875,-4.390625 1.578125,-4.390625 H 1.53125 c 0,0 -0.046875,0 -0.078125,0 C 1.359375,-4.375 1,-4.3125 0.46875,-4.21875 c -0.046875,0.015625 -0.171875,0.046875 -0.3125,0.0625 z m 0,0"
                 id="path8078" />
            </symbol>
          </g>
        </defs>
        <g
           id="textext-aef506da-2">
          <g
             style="fill:#000000;fill-opacity:1"
             id="g8087">
            <use
               height="100%"
               width="100%"
               xlink:href="#textext-aef506da-1"
               x="223.43201"
               y="134.765"
               id="use8085" />
          </g>
        </g>
      </g>
      <g
         id="g8339"
         ns0:preamble="/home/cardoso/Documents/Tesis/Imagenes/preambulo-inkscape.txt"
         ns0:text="$x$"
         transform="rotate(25.494519,-181.74218,376.93907)">
        <defs
           id="defs8332">
          <g
             id="g8330">
            <symbol
               id="textext-5337a741-0"
               overflow="visible"
               style="overflow:visible">
              <path
                 id="path8324"
                 d=""
                 style="stroke:none"
                 inkscape:connector-curvature="0" />
            </symbol>
            <symbol
               id="textext-5337a741-1"
               overflow="visible"
               style="overflow:visible">
              <path
                 id="path8327"
                 d="M 4,-1.109375 C 3.921875,-1.015625 3.875,-0.953125 3.78125,-0.84375 3.5625,-0.53125 3.4375,-0.4375 3.328125,-0.4375 3.1875,-0.4375 3.09375,-0.5625 3.015625,-0.84375 3,-0.921875 2.984375,-0.984375 2.984375,-1.015625 2.734375,-2.03125 2.625,-2.484375 2.625,-2.625 c 0.4375,-0.78125 0.796875,-1.21875 0.96875,-1.21875 0.0625,0 0.140625,0.03125 0.25,0.078125 0.109375,0.078125 0.1875,0.09375 0.265625,0.09375 0.203125,0 0.34375,-0.140625 0.34375,-0.359375 0,-0.203125 -0.171875,-0.359375 -0.40625,-0.359375 -0.4375,0 -0.8125,0.359375 -1.5,1.421875 L 2.4375,-3.515625 c -0.140625,-0.6875 -0.25,-0.875 -0.53125,-0.875 -0.21875,0 -0.546875,0.078125 -1.15625,0.28125 L 0.640625,-4.0625 0.671875,-3.921875 C 1.0625,-4 1.140625,-4.03125 1.234375,-4.03125 c 0.25,0 0.3125,0.09375 0.453125,0.6875 l 0.28125,1.234375 -0.8125,1.15625 C 0.953125,-0.640625 0.75,-0.46875 0.640625,-0.46875 0.59375,-0.46875 0.484375,-0.5 0.390625,-0.5625 0.265625,-0.625 0.15625,-0.65625 0.0625,-0.65625 c -0.1875,0 -0.328125,0.140625 -0.328125,0.34375 0,0.265625 0.203125,0.421875 0.5,0.421875 0.296875,0 0.421875,-0.09375 0.921875,-0.703125 0.265625,-0.3125 0.484375,-0.578125 0.890625,-1.15625 l 0.3125,1.1875 c 0.125,0.515625 0.25,0.671875 0.578125,0.671875 0.375,0 0.625,-0.234375 1.203125,-1.140625 z m 0,0"
                 style="stroke:none"
                 inkscape:connector-curvature="0" />
            </symbol>
          </g>
        </defs>
        <g
           id="textext-5337a741-2">
          <g
             id="g8336"
             style="fill:#000000;fill-opacity:1">
            <use
               id="use8334"
               y="134.765"
               x="223.43201"
               xlink:href="#textext-5337a741-1"
               width="100%"
               height="100%" />
          </g>
        </g>
      </g>
      <path
         style="fill:none;stroke:#000000;stroke-width:0.875;stroke-linecap:butt;stroke-linejoin:miter;stroke-miterlimit:4;stroke-dasharray:none;stroke-opacity:1;marker-start:url(#Arrow1Sstart);marker-end:url(#Arrow1Send)"
         d="m 155.71879,227.13607 38.99512,19.14218"
         id="path4633"
         inkscape:connector-curvature="0" />
      <path
         style="fill:none;stroke:#000000;stroke-width:0.875;stroke-linecap:butt;stroke-linejoin:miter;stroke-opacity:1;marker-start:url(#marker5109);marker-end:url(#marker5167);stroke-miterlimit:4;stroke-dasharray:none"
         d="m 196.38771,247.0999 39.95128,19.61154"
         id="path5105"
         inkscape:connector-curvature="0" />
      <g
         id="g5846"
         ns0:preamble="/home/cardoso/Documents/Tesis/Imagenes/preambulo-inkscape.txt"
         ns0:text="$\\Delta x$"
         transform="matrix(1.1,0,0,1.1,-74.084408,84.96001)">
        <defs
           id="defs5835">
          <g
             id="g5833">
            <symbol
               id="textext-d4462440-0"
               overflow="visible"
               style="overflow:visible">
              <path
                 id="path5821"
                 d=""
                 style="stroke:none"
                 inkscape:connector-curvature="0" />
            </symbol>
            <symbol
               id="textext-d4462440-1"
               overflow="visible"
               style="overflow:visible">
              <path
                 id="path5824"
                 d="m 0.0625,0 h 6 L 3.265625,-6.859375 Z m 0.703125,-0.515625 2.125,-4.5625 1.890625,4.5625 z m 0,0"
                 style="stroke:none"
                 inkscape:connector-curvature="0" />
            </symbol>
            <symbol
               id="textext-d4462440-2"
               overflow="visible"
               style="overflow:visible">
              <path
                 id="path5827"
                 d=""
                 style="stroke:none"
                 inkscape:connector-curvature="0" />
            </symbol>
            <symbol
               id="textext-d4462440-3"
               overflow="visible"
               style="overflow:visible">
              <path
                 id="path5830"
                 d="M 4,-1.109375 C 3.921875,-1.015625 3.875,-0.953125 3.78125,-0.84375 3.5625,-0.53125 3.4375,-0.4375 3.328125,-0.4375 3.1875,-0.4375 3.09375,-0.5625 3.015625,-0.84375 3,-0.921875 2.984375,-0.984375 2.984375,-1.015625 2.734375,-2.03125 2.625,-2.484375 2.625,-2.625 c 0.4375,-0.78125 0.796875,-1.21875 0.96875,-1.21875 0.0625,0 0.140625,0.03125 0.25,0.078125 0.109375,0.078125 0.1875,0.09375 0.265625,0.09375 0.203125,0 0.34375,-0.140625 0.34375,-0.359375 0,-0.203125 -0.171875,-0.359375 -0.40625,-0.359375 -0.4375,0 -0.8125,0.359375 -1.5,1.421875 L 2.4375,-3.515625 c -0.140625,-0.6875 -0.25,-0.875 -0.53125,-0.875 -0.21875,0 -0.546875,0.078125 -1.15625,0.28125 L 0.640625,-4.0625 0.671875,-3.921875 C 1.0625,-4 1.140625,-4.03125 1.234375,-4.03125 c 0.25,0 0.3125,0.09375 0.453125,0.6875 l 0.28125,1.234375 -0.8125,1.15625 C 0.953125,-0.640625 0.75,-0.46875 0.640625,-0.46875 0.59375,-0.46875 0.484375,-0.5 0.390625,-0.5625 0.265625,-0.625 0.15625,-0.65625 0.0625,-0.65625 c -0.1875,0 -0.328125,0.140625 -0.328125,0.34375 0,0.265625 0.203125,0.421875 0.5,0.421875 0.296875,0 0.421875,-0.09375 0.921875,-0.703125 0.265625,-0.3125 0.484375,-0.578125 0.890625,-1.15625 l 0.3125,1.1875 c 0.125,0.515625 0.25,0.671875 0.578125,0.671875 0.375,0 0.625,-0.234375 1.203125,-1.140625 z m 0,0"
                 style="stroke:none"
                 inkscape:connector-curvature="0" />
            </symbol>
          </g>
        </defs>
        <g
           id="textext-d4462440-4"
           transform="rotate(25.131734,229.18216,132.85982)">
          <g
             id="g5839"
             style="fill:#000000;fill-opacity:1">
            <use
               id="use5837"
               y="134.765"
               x="223.43201"
               xlink:href="#textext-d4462440-1"
               width="100%"
               height="100%" />
          </g>
          <g
             id="g5843"
             style="fill:#000000;fill-opacity:1">
            <use
               id="use5841"
               y="134.765"
               x="229.52901"
               xlink:href="#textext-d4462440-3"
               width="100%"
               height="100%" />
          </g>
        </g>
        <g
           transform="rotate(25.131734,206.64714,226.15139)"
           id="g6009">
          <g
             style="fill:#000000;fill-opacity:1"
             id="g6003">
            <use
               height="100%"
               width="100%"
               xlink:href="#textext-d4462440-1"
               x="223.43201"
               y="134.765"
               id="use6001" />
          </g>
          <g
             style="fill:#000000;fill-opacity:1"
             id="g6007">
            <use
               height="100%"
               width="100%"
               xlink:href="#textext-d4462440-3"
               x="229.52901"
               y="134.765"
               id="use6005" />
          </g>
        </g>
      </g>
      <g
         id="g4018"
         transform="matrix(0.77391579,-0.31693147,0.37735642,0.75786886,-33.245578,158.66135)"
         ns0:preamble=""
         ns0:text="Aproximacion\\\\   backward">
        <defs
           id="defs4020">
          <g
             id="g4022">
            <symbol
               id="textext-1c7934c6-0"
               overflow="visible"
               style="overflow:visible">
              <path
                 id="path4025"
                 d=""
                 style="stroke:none"
                 inkscape:connector-curvature="0" />
            </symbol>
            <symbol
               id="textext-1c7934c6-1"
               overflow="visible"
               style="overflow:visible">
              <path
                 id="path4028"
                 d="m 3.96875,-6.9375 c -0.046875,-0.125 -0.078125,-0.203125 -0.234375,-0.203125 -0.15625,0 -0.1875,0.0625 -0.234375,0.203125 L 1.4375,-0.984375 C 1.25,-0.46875 0.859375,-0.3125 0.3125,-0.3125 l 0,0.3125 c 0.234375,-0.015625 0.671875,-0.03125 1.015625,-0.03125 0.3125,0 0.828125,0.015625 1.15625,0.03125 l 0,-0.3125 c -0.5,0 -0.75,-0.25 -0.75,-0.5 0,-0.03125 0.015625,-0.140625 0.015625,-0.15625 l 0.46875,-1.296875 2.453125,0 0.53125,1.515625 c 0.015625,0.046875 0.03125,0.109375 0.03125,0.140625 0,0.296875 -0.5625,0.296875 -0.828125,0.296875 l 0,0.3125 c 0.359375,-0.03125 1.0625,-0.03125 1.4375,-0.03125 0.421875,0 0.890625,0.015625 1.296875,0.03125 l 0,-0.3125 -0.171875,0 C 6.375,-0.3125 6.234375,-0.375 6.125,-0.703125 Z m -0.53125,1.109375 1.125,3.25 -2.234375,0 z m 0,0"
                 style="stroke:none"
                 inkscape:connector-curvature="0" />
            </symbol>
            <symbol
               id="textext-1c7934c6-2"
               overflow="visible"
               style="overflow:visible">
              <path
                 id="path4031"
                 d="m 1.71875,-3.75 0,-0.65625 -1.4375,0.109375 0,0.3125 c 0.703125,0 0.78125,0.0625 0.78125,0.5 l 0,4.65625 C 1.0625,1.625 0.953125,1.625 0.28125,1.625 l 0,0.3125 C 0.625,1.921875 1.140625,1.90625 1.390625,1.90625 c 0.28125,0 0.78125,0.015625 1.125,0.03125 l 0,-0.3125 C 1.859375,1.625 1.75,1.625 1.75,1.171875 l 0,-1.765625 c 0.046875,0.171875 0.46875,0.703125 1.21875,0.703125 1.1875,0 2.21875,-0.984375 2.21875,-2.265625 0,-1.265625 -0.953125,-2.25 -2.078125,-2.25 -0.78125,0 -1.203125,0.4375 -1.390625,0.65625 z m 0.03125,2.609375 0,-2.21875 C 2.03125,-3.875 2.515625,-4.15625 3.03125,-4.15625 c 0.734375,0 1.328125,0.875 1.328125,2 0,1.203125 -0.6875,2.046875 -1.421875,2.046875 -0.40625,0 -0.78125,-0.203125 -1.046875,-0.609375 C 1.75,-0.921875 1.75,-0.9375 1.75,-1.140625 Z m 0,0"
                 style="stroke:none"
                 inkscape:connector-curvature="0" />
            </symbol>
            <symbol
               id="textext-1c7934c6-3"
               overflow="visible"
               style="overflow:visible">
              <path
                 id="path4034"
                 d="m 1.671875,-3.3125 0,-1.09375 -1.390625,0.109375 0,0.3125 c 0.703125,0 0.78125,0.0625 0.78125,0.5625 l 0,2.671875 c 0,0.4375 -0.109375,0.4375 -0.78125,0.4375 l 0,0.3125 c 0.390625,-0.015625 0.859375,-0.03125 1.140625,-0.03125 0.390625,0 0.859375,0 1.265625,0.03125 l 0,-0.3125 -0.21875,0 c -0.734375,0 -0.75,-0.109375 -0.75,-0.46875 l 0,-1.53125 c 0,-0.984375 0.421875,-1.875 1.171875,-1.875 0.0625,0 0.09375,0 0.109375,0.015625 -0.03125,0 -0.234375,0.125 -0.234375,0.390625 0,0.265625 0.21875,0.421875 0.4375,0.421875 0.171875,0 0.421875,-0.125 0.421875,-0.4375 0,-0.3125 -0.3125,-0.609375 -0.734375,-0.609375 -0.734375,0 -1.09375,0.671875 -1.21875,1.09375 z m 0,0"
                 style="stroke:none"
                 inkscape:connector-curvature="0" />
            </symbol>
            <symbol
               id="textext-1c7934c6-4"
               overflow="visible"
               style="overflow:visible">
              <path
                 id="path4037"
                 d="M 4.6875,-2.140625 C 4.6875,-3.40625 3.703125,-4.46875 2.5,-4.46875 c -1.25,0 -2.21875,1.09375 -2.21875,2.328125 0,1.296875 1.03125,2.25 2.203125,2.25 1.203125,0 2.203125,-0.984375 2.203125,-2.25 z m -2.1875,2 c -0.4375,0 -0.875,-0.203125 -1.140625,-0.671875 -0.25,-0.4375 -0.25,-1.046875 -0.25,-1.40625 0,-0.390625 0,-0.921875 0.234375,-1.359375 C 1.609375,-4.03125 2.078125,-4.25 2.484375,-4.25 c 0.4375,0 0.859375,0.21875 1.125,0.65625 0.265625,0.421875 0.265625,1 0.265625,1.375 0,0.359375 0,0.90625 -0.21875,1.34375 C 3.421875,-0.421875 2.984375,-0.140625 2.5,-0.140625 Z m 0,0"
                 style="stroke:none"
                 inkscape:connector-curvature="0" />
            </symbol>
            <symbol
               id="textext-1c7934c6-5"
               overflow="visible"
               style="overflow:visible">
              <path
                 id="path4040"
                 d="M 2.859375,-2.34375 C 3.15625,-2.71875 3.53125,-3.203125 3.78125,-3.46875 4.09375,-3.828125 4.5,-3.984375 4.96875,-3.984375 l 0,-0.3125 c -0.265625,0.015625 -0.5625,0.03125 -0.828125,0.03125 -0.296875,0 -0.828125,-0.015625 -0.953125,-0.03125 l 0,0.3125 c 0.21875,0.015625 0.296875,0.140625 0.296875,0.3125 0,0.15625 -0.109375,0.28125 -0.15625,0.34375 L 2.71875,-2.546875 1.9375,-3.5625 C 1.84375,-3.65625 1.84375,-3.671875 1.84375,-3.734375 c 0,-0.15625 0.15625,-0.25 0.34375,-0.25 l 0,-0.3125 c -0.25,0.015625 -0.90625,0.03125 -1.078125,0.03125 -0.203125,0 -0.671875,-0.015625 -0.9375,-0.03125 l 0,0.3125 c 0.703125,0 0.703125,0 1.171875,0.609375 l 0.984375,1.28125 -0.9375,1.1875 C 0.921875,-0.328125 0.328125,-0.3125 0.125,-0.3125 L 0.125,0 c 0.25,-0.015625 0.5625,-0.03125 0.828125,-0.03125 0.28125,0 0.703125,0.015625 0.9375,0.03125 l 0,-0.3125 c -0.21875,-0.03125 -0.28125,-0.15625 -0.28125,-0.3125 0,-0.21875 0.28125,-0.546875 0.890625,-1.265625 l 0.765625,1 C 3.34375,-0.78125 3.46875,-0.625 3.46875,-0.5625 c 0,0.09375 -0.09375,0.25 -0.359375,0.25 l 0,0.3125 C 3.40625,-0.015625 3.96875,-0.03125 4.1875,-0.03125 c 0.265625,0 0.65625,0.015625 0.953125,0.03125 l 0,-0.3125 c -0.53125,0 -0.71875,-0.015625 -0.9375,-0.3125 z m 0,0"
                 style="stroke:none"
                 inkscape:connector-curvature="0" />
            </symbol>
            <symbol
               id="textext-1c7934c6-6"
               overflow="visible"
               style="overflow:visible">
              <path
                 id="path4043"
                 d="M 1.765625,-4.40625 0.375,-4.296875 l 0,0.3125 c 0.640625,0 0.734375,0.0625 0.734375,0.546875 l 0,2.6875 c 0,0.4375 -0.109375,0.4375 -0.78125,0.4375 l 0,0.3125 C 0.640625,-0.015625 1.1875,-0.03125 1.421875,-0.03125 1.78125,-0.03125 2.125,-0.015625 2.46875,0 l 0,-0.3125 c -0.671875,0 -0.703125,-0.046875 -0.703125,-0.4375 z m 0.03125,-1.734375 c 0,-0.3125 -0.234375,-0.53125 -0.515625,-0.53125 -0.3125,0 -0.53125,0.265625 -0.53125,0.53125 0,0.265625 0.21875,0.53125 0.53125,0.53125 0.28125,0 0.515625,-0.21875 0.515625,-0.53125 z m 0,0"
                 style="stroke:none"
                 inkscape:connector-curvature="0" />
            </symbol>
            <symbol
               id="textext-1c7934c6-7"
               overflow="visible"
               style="overflow:visible">
              <path
                 id="path4046"
                 d="m 1.09375,-3.421875 0,2.671875 c 0,0.4375 -0.109375,0.4375 -0.78125,0.4375 l 0,0.3125 c 0.359375,-0.015625 0.859375,-0.03125 1.140625,-0.03125 0.25,0 0.765625,0.015625 1.109375,0.03125 l 0,-0.3125 c -0.671875,0 -0.78125,0 -0.78125,-0.4375 l 0,-1.84375 C 1.78125,-3.625 2.5,-4.1875 3.125,-4.1875 c 0.640625,0 0.75,0.53125 0.75,1.109375 l 0,2.328125 c 0,0.4375 -0.109375,0.4375 -0.78125,0.4375 l 0,0.3125 c 0.34375,-0.015625 0.859375,-0.03125 1.125,-0.03125 0.25,0 0.78125,0.015625 1.109375,0.03125 l 0,-0.3125 c -0.65625,0 -0.765625,0 -0.765625,-0.4375 l 0,-1.84375 c 0,-1.03125 0.703125,-1.59375 1.34375,-1.59375 0.625,0 0.734375,0.53125 0.734375,1.109375 l 0,2.328125 c 0,0.4375 -0.109375,0.4375 -0.78125,0.4375 l 0,0.3125 c 0.34375,-0.015625 0.859375,-0.03125 1.125,-0.03125 0.265625,0 0.78125,0.015625 1.125,0.03125 l 0,-0.3125 c -0.515625,0 -0.765625,0 -0.78125,-0.296875 l 0,-1.90625 c 0,-0.859375 0,-1.15625 -0.3125,-1.515625 -0.140625,-0.171875 -0.46875,-0.375 -1.046875,-0.375 -0.828125,0 -1.28125,0.59375 -1.4375,0.984375 C 4.390625,-4.296875 3.65625,-4.40625 3.203125,-4.40625 2.46875,-4.40625 2,-3.984375 1.71875,-3.359375 l 0,-1.046875 -1.40625,0.109375 0,0.3125 c 0.703125,0 0.78125,0.0625 0.78125,0.5625 z m 0,0"
                 style="stroke:none"
                 inkscape:connector-curvature="0" />
            </symbol>
            <symbol
               id="textext-1c7934c6-8"
               overflow="visible"
               style="overflow:visible">
              <path
                 id="path4049"
                 d="m 3.3125,-0.75 c 0.046875,0.390625 0.3125,0.8125 0.78125,0.8125 0.21875,0 0.828125,-0.140625 0.828125,-0.953125 l 0,-0.5625 -0.25,0 0,0.5625 c 0,0.578125 -0.25,0.640625 -0.359375,0.640625 -0.328125,0 -0.375,-0.453125 -0.375,-0.5 l 0,-1.984375 c 0,-0.421875 0,-0.8125 -0.359375,-1.1875 C 3.1875,-4.3125 2.6875,-4.46875 2.21875,-4.46875 c -0.828125,0 -1.515625,0.46875 -1.515625,1.125 0,0.296875 0.203125,0.46875 0.46875,0.46875 0.28125,0 0.453125,-0.203125 0.453125,-0.453125 0,-0.125 -0.046875,-0.453125 -0.515625,-0.453125 C 1.390625,-4.140625 1.875,-4.25 2.1875,-4.25 c 0.5,0 1.0625,0.390625 1.0625,1.28125 l 0,0.359375 c -0.515625,0.03125 -1.203125,0.0625 -1.828125,0.359375 -0.75,0.34375 -1,0.859375 -1,1.296875 0,0.8125 0.96875,1.0625 1.59375,1.0625 0.65625,0 1.109375,-0.40625 1.296875,-0.859375 z M 3.25,-2.390625 l 0,1 c 0,0.9375 -0.71875,1.28125 -1.171875,1.28125 -0.484375,0 -0.890625,-0.34375 -0.890625,-0.84375 0,-0.546875 0.421875,-1.375 2.0625,-1.4375 z m 0,0"
                 style="stroke:none"
                 inkscape:connector-curvature="0" />
            </symbol>
            <symbol
               id="textext-1c7934c6-9"
               overflow="visible"
               style="overflow:visible">
              <path
                 id="path4052"
                 d="m 1.171875,-2.171875 c 0,-1.625 0.8125,-2.046875 1.34375,-2.046875 0.09375,0 0.71875,0.015625 1.0625,0.375 -0.40625,0.03125 -0.46875,0.328125 -0.46875,0.453125 0,0.265625 0.1875,0.453125 0.453125,0.453125 0.265625,0 0.46875,-0.15625 0.46875,-0.46875 0,-0.671875 -0.765625,-1.0625 -1.53125,-1.0625 -1.25,0 -2.15625,1.078125 -2.15625,2.3125 0,1.28125 0.984375,2.265625 2.140625,2.265625 1.328125,0 1.65625,-1.203125 1.65625,-1.296875 0,-0.09375 -0.109375,-0.09375 -0.140625,-0.09375 -0.078125,0 -0.109375,0.03125 -0.125,0.09375 -0.28125,0.921875 -0.9375,1.046875 -1.296875,1.046875 -0.53125,0 -1.40625,-0.421875 -1.40625,-2.03125 z m 0,0"
                 style="stroke:none"
                 inkscape:connector-curvature="0" />
            </symbol>
            <symbol
               id="textext-1c7934c6-10"
               overflow="visible"
               style="overflow:visible">
              <path
                 id="path4055"
                 d="m 1.09375,-3.421875 0,2.671875 c 0,0.4375 -0.109375,0.4375 -0.78125,0.4375 l 0,0.3125 c 0.359375,-0.015625 0.859375,-0.03125 1.140625,-0.03125 0.25,0 0.765625,0.015625 1.109375,0.03125 l 0,-0.3125 c -0.671875,0 -0.78125,0 -0.78125,-0.4375 l 0,-1.84375 C 1.78125,-3.625 2.5,-4.1875 3.125,-4.1875 c 0.640625,0 0.75,0.53125 0.75,1.109375 l 0,2.328125 c 0,0.4375 -0.109375,0.4375 -0.78125,0.4375 l 0,0.3125 c 0.34375,-0.015625 0.859375,-0.03125 1.125,-0.03125 0.25,0 0.78125,0.015625 1.109375,0.03125 l 0,-0.3125 c -0.515625,0 -0.765625,0 -0.765625,-0.296875 l 0,-1.90625 c 0,-0.859375 0,-1.15625 -0.3125,-1.515625 -0.140625,-0.171875 -0.46875,-0.375 -1.046875,-0.375 C 2.46875,-4.40625 2,-3.984375 1.71875,-3.359375 l 0,-1.046875 -1.40625,0.109375 0,0.3125 c 0.703125,0 0.78125,0.0625 0.78125,0.5625 z m 0,0"
                 style="stroke:none"
                 inkscape:connector-curvature="0" />
            </symbol>
            <symbol
               id="textext-1c7934c6-11"
               overflow="visible"
               style="overflow:visible">
              <path
                 id="path4058"
                 d="m 1.71875,-3.765625 0,-3.15625 -1.4375,0.109375 0,0.3125 c 0.703125,0 0.78125,0.0625 0.78125,0.5625 l 0,5.9375 0.25,0 c 0,-0.015625 0.078125,-0.15625 0.359375,-0.625 0.140625,0.234375 0.5625,0.734375 1.296875,0.734375 1.1875,0 2.21875,-0.984375 2.21875,-2.265625 0,-1.265625 -0.96875,-2.25 -2.109375,-2.25 -0.78125,0 -1.203125,0.46875 -1.359375,0.640625 z m 0.03125,2.625 0,-2.046875 c 0,-0.1875 0,-0.203125 0.109375,-0.359375 C 2.25,-4.109375 2.796875,-4.1875 3.03125,-4.1875 c 0.453125,0 0.8125,0.265625 1.046875,0.640625 0.265625,0.40625 0.28125,0.96875 0.28125,1.390625 0,0.359375 -0.015625,0.953125 -0.296875,1.40625 -0.21875,0.3125 -0.59375,0.640625 -1.125,0.640625 -0.453125,0 -0.8125,-0.234375 -1.046875,-0.609375 C 1.75,-0.921875 1.75,-0.953125 1.75,-1.140625 Z m 0,0"
                 style="stroke:none"
                 inkscape:connector-curvature="0" />
            </symbol>
            <symbol
               id="textext-1c7934c6-12"
               overflow="visible"
               style="overflow:visible">
              <path
                 id="path4061"
                 d="m 1.0625,-0.75 c 0,0.4375 -0.109375,0.4375 -0.78125,0.4375 l 0,0.3125 c 0.328125,-0.015625 0.796875,-0.03125 1.078125,-0.03125 0.3125,0 0.703125,0.015625 1.109375,0.03125 l 0,-0.3125 c -0.671875,0 -0.78125,0 -0.78125,-0.4375 l 0,-1.03125 0.640625,-0.546875 c 0.765625,1.046875 1.1875,1.609375 1.1875,1.796875 0,0.1875 -0.171875,0.21875 -0.359375,0.21875 l 0,0.3125 c 0.265625,-0.015625 0.859375,-0.03125 1.078125,-0.03125 0.28125,0 0.578125,0.015625 0.859375,0.03125 l 0,-0.3125 c -0.375,0 -0.59375,0 -0.96875,-0.53125 L 2.859375,-2.625 c -0.015625,-0.015625 -0.0625,-0.078125 -0.0625,-0.109375 0,-0.03125 0.71875,-0.640625 0.8125,-0.71875 0.625,-0.5 1.046875,-0.53125 1.25,-0.53125 l 0,-0.3125 c -0.28125,0.03125 -0.40625,0.03125 -0.6875,0.03125 -0.359375,0 -0.984375,-0.015625 -1.125,-0.03125 l 0,0.3125 c 0.1875,0 0.296875,0.109375 0.296875,0.25 0,0.203125 -0.140625,0.3125 -0.21875,0.390625 l -1.40625,1.203125 0,-4.78125 -1.4375,0.109375 0,0.3125 c 0.703125,0 0.78125,0.0625 0.78125,0.5625 z m 0,0"
                 style="stroke:none"
                 inkscape:connector-curvature="0" />
            </symbol>
            <symbol
               id="textext-1c7934c6-13"
               overflow="visible"
               style="overflow:visible">
              <path
                 id="path4064"
                 d="m 6.171875,-3.34375 c 0.171875,-0.5 0.484375,-0.640625 0.84375,-0.640625 l 0,-0.3125 C 6.78125,-4.28125 6.5,-4.265625 6.28125,-4.265625 c -0.296875,0 -0.734375,-0.015625 -0.921875,-0.03125 l 0,0.3125 c 0.359375,0 0.578125,0.1875 0.578125,0.46875 0,0.0625 0,0.09375 -0.0625,0.21875 L 4.96875,-0.75 3.984375,-3.53125 C 3.953125,-3.65625 3.9375,-3.671875 3.9375,-3.71875 c 0,-0.265625 0.390625,-0.265625 0.59375,-0.265625 l 0,-0.3125 c -0.296875,0.015625 -0.796875,0.03125 -1.046875,0.03125 -0.296875,0 -0.578125,-0.015625 -0.875,-0.03125 l 0,0.3125 c 0.359375,0 0.515625,0.015625 0.625,0.140625 0.046875,0.0625 0.15625,0.359375 0.21875,0.546875 L 2.609375,-0.875 1.65625,-3.53125 C 1.609375,-3.65625 1.609375,-3.671875 1.609375,-3.71875 1.609375,-3.984375 2,-3.984375 2.1875,-3.984375 l 0,-0.3125 c -0.296875,0.015625 -0.859375,0.03125 -1.078125,0.03125 -0.046875,0 -0.578125,-0.015625 -0.9375,-0.03125 l 0,0.3125 c 0.5,0 0.625,0.03125 0.75,0.34375 l 1.25,3.53125 C 2.21875,0.03125 2.25,0.109375 2.375,0.109375 c 0.140625,0 0.15625,-0.0625 0.203125,-0.203125 l 1.015625,-2.8125 1.015625,2.828125 c 0.03125,0.109375 0.0625,0.1875 0.203125,0.1875 0.125,0 0.15625,-0.09375 0.1875,-0.1875 z m 0,0"
                 style="stroke:none"
                 inkscape:connector-curvature="0" />
            </symbol>
            <symbol
               id="textext-1c7934c6-14"
               overflow="visible"
               style="overflow:visible">
              <path
                 id="path4067"
                 d="m 3.78125,-0.546875 0,0.65625 L 5.25,0 l 0,-0.3125 c -0.6875,0 -0.78125,-0.0625 -0.78125,-0.5625 l 0,-6.046875 -1.421875,0.109375 0,0.3125 c 0.6875,0 0.765625,0.0625 0.765625,0.5625 l 0,2.15625 c -0.28125,-0.359375 -0.71875,-0.625 -1.25,-0.625 -1.171875,0 -2.21875,0.984375 -2.21875,2.265625 0,1.265625 0.96875,2.25 2.109375,2.25 0.640625,0 1.078125,-0.34375 1.328125,-0.65625 z m 0,-2.671875 0,2.046875 c 0,0.171875 0,0.1875 -0.109375,0.359375 C 3.375,-0.328125 2.9375,-0.109375 2.5,-0.109375 2.046875,-0.109375 1.6875,-0.375 1.453125,-0.75 1.203125,-1.15625 1.171875,-1.71875 1.171875,-2.140625 1.171875,-2.5 1.1875,-3.09375 1.46875,-3.546875 1.6875,-3.859375 2.0625,-4.1875 2.609375,-4.1875 c 0.34375,0 0.765625,0.15625 1.0625,0.59375 0.109375,0.171875 0.109375,0.1875 0.109375,0.375 z m 0,0"
                 style="stroke:none"
                 inkscape:connector-curvature="0" />
            </symbol>
          </g>
        </defs>
        <g
           id="textext-1c7934c6-15">
          <g
             id="g4070"
             style="fill:#000000;fill-opacity:1">
            <use
               id="use4072"
               y="134.765"
               x="223.43201"
               xlink:href="#textext-1c7934c6-1"
               width="100%"
               height="100%" />
            <use
               id="use4074"
               y="134.765"
               x="230.90395"
               xlink:href="#textext-1c7934c6-2"
               width="100%"
               height="100%" />
            <use
               id="use4076"
               y="134.765"
               x="236.43918"
               xlink:href="#textext-1c7934c6-3"
               width="100%"
               height="100%" />
            <use
               id="use4078"
               y="134.765"
               x="240.34152"
               xlink:href="#textext-1c7934c6-4"
               width="100%"
               height="100%" />
          </g>
          <g
             id="g4080"
             style="fill:#000000;fill-opacity:1">
            <use
               id="use4082"
               y="134.765"
               x="245.04387"
               xlink:href="#textext-1c7934c6-5"
               width="100%"
               height="100%" />
            <use
               id="use4084"
               y="134.765"
               x="250.30212"
               xlink:href="#textext-1c7934c6-6"
               width="100%"
               height="100%" />
            <use
               id="use4086"
               y="134.765"
               x="253.06973"
               xlink:href="#textext-1c7934c6-7"
               width="100%"
               height="100%" />
            <use
               id="use4088"
               y="134.765"
               x="261.37158"
               xlink:href="#textext-1c7934c6-8"
               width="100%"
               height="100%" />
            <use
               id="use4090"
               y="134.765"
               x="266.35287"
               xlink:href="#textext-1c7934c6-9"
               width="100%"
               height="100%" />
            <use
               id="use4092"
               y="134.765"
               x="270.78024"
               xlink:href="#textext-1c7934c6-6"
               width="100%"
               height="100%" />
            <use
               id="use4094"
               y="134.765"
               x="273.54785"
               xlink:href="#textext-1c7934c6-4"
               width="100%"
               height="100%" />
            <use
               id="use4096"
               y="134.765"
               x="278.52917"
               xlink:href="#textext-1c7934c6-10"
               width="100%"
               height="100%" />
          </g>
          <g
             id="g4098"
             style="fill:#000000;fill-opacity:1">
            <use
               id="use4100"
               y="146.72"
               x="223.43201"
               xlink:href="#textext-1c7934c6-11"
               width="100%"
               height="100%" />
            <use
               id="use4102"
               y="146.72"
               x="228.96722"
               xlink:href="#textext-1c7934c6-8"
               width="100%"
               height="100%" />
            <use
               id="use4104"
               y="146.72"
               x="233.94852"
               xlink:href="#textext-1c7934c6-9"
               width="100%"
               height="100%" />
          </g>
          <g
             id="g4106"
             style="fill:#000000;fill-opacity:1">
            <use
               id="use4108"
               y="146.72"
               x="238.09695"
               xlink:href="#textext-1c7934c6-12"
               width="100%"
               height="100%" />
            <use
               id="use4110"
               y="146.72"
               x="243.35521"
               xlink:href="#textext-1c7934c6-13"
               width="100%"
               height="100%" />
          </g>
          <g
             id="g4112"
             style="fill:#000000;fill-opacity:1">
            <use
               id="use4114"
               y="146.72"
               x="250.27124"
               xlink:href="#textext-1c7934c6-8"
               width="100%"
               height="100%" />
            <use
               id="use4116"
               y="146.72"
               x="255.25255"
               xlink:href="#textext-1c7934c6-3"
               width="100%"
               height="100%" />
            <use
               id="use4118"
               y="146.72"
               x="259.15491"
               xlink:href="#textext-1c7934c6-14"
               width="100%"
               height="100%" />
          </g>
        </g>
      </g>
    </g>
  </g>
</svg>
