<?xml version="1.0" encoding="UTF-8" standalone="no"?>
<!-- Created with Inkscape (http://www.inkscape.org/) -->

<svg
   xmlns:ns0="http://www.iki.fi/pav/software/textext/"
   xmlns:dc="http://purl.org/dc/elements/1.1/"
   xmlns:cc="http://creativecommons.org/ns#"
   xmlns:rdf="http://www.w3.org/1999/02/22-rdf-syntax-ns#"
   xmlns:svg="http://www.w3.org/2000/svg"
   xmlns="http://www.w3.org/2000/svg"
   xmlns:xlink="http://www.w3.org/1999/xlink"
   xmlns:sodipodi="http://sodipodi.sourceforge.net/DTD/sodipodi-0.dtd"
   xmlns:inkscape="http://www.inkscape.org/namespaces/inkscape"
   sodipodi:docname="malla-DF1.svg"
   viewBox="0 0 660 540"
   height="540"
   width="660"
   xml:space="preserve"
   id="svg2"
   version="1.1"
   inkscape:version="0.92.1 r15371"><sodipodi:namedview
     inkscape:snap-intersection-paths="true"
     inkscape:current-layer="svg2"
     inkscape:window-maximized="1"
     inkscape:window-y="27"
     inkscape:window-x="0"
     inkscape:cy="267.35887"
     inkscape:cx="439.39598"
     inkscape:zoom="1.7481481"
     showgrid="false"
     id="namedview4"
     inkscape:window-height="713"
     inkscape:window-width="1366"
     inkscape:pageshadow="2"
     inkscape:pageopacity="0"
     guidetolerance="10"
     gridtolerance="10"
     objecttolerance="10"
     borderopacity="1"
     bordercolor="#666666"
     pagecolor="#ffffff"
     showguides="true" /><metadata
     id="metadata8"><rdf:RDF><cc:Work
         rdf:about=""><dc:format>image/svg+xml</dc:format><dc:type
           rdf:resource="http://purl.org/dc/dcmitype/StillImage" /><dc:title /></cc:Work></rdf:RDF></metadata><defs
     id="defs6"><marker
       inkscape:stockid="Arrow1Mend"
       orient="auto"
       refY="0.0"
       refX="0.0"
       id="marker10267"
       style="overflow:visible;"
       inkscape:isstock="true"><path
         id="path10265"
         d="M 0.0,0.0 L 5.0,-5.0 L -12.5,0.0 L 5.0,5.0 L 0.0,0.0 z "
         style="fill-rule:evenodd;stroke:#000000;stroke-width:1pt;stroke-opacity:1;fill:#000000;fill-opacity:1"
         transform="scale(0.4) rotate(180) translate(10,0)" /></marker><marker
       inkscape:isstock="true"
       style="overflow:visible"
       id="marker10257"
       refX="0.0"
       refY="0.0"
       orient="auto"
       inkscape:stockid="Arrow2Mstart"><path
         transform="scale(0.6) translate(0,0)"
         d="M 8.7185878,4.0337352 L -2.2072895,0.016013256 L 8.7185884,-4.0017078 C 6.9730900,-1.6296469 6.9831476,1.6157441 8.7185878,4.0337352 z "
         style="fill-rule:evenodd;stroke-width:0.625;stroke-linejoin:round;stroke:#000000;stroke-opacity:1;fill:#000000;fill-opacity:1"
         id="path10255" /></marker><marker
       inkscape:collect="always"
       inkscape:isstock="true"
       style="overflow:visible;"
       id="Arrow1Mend"
       refX="0.0"
       refY="0.0"
       orient="auto"
       inkscape:stockid="Arrow1Mend"><path
         transform="scale(0.4) rotate(180) translate(10,0)"
         style="fill-rule:evenodd;stroke:#000000;stroke-width:1pt;stroke-opacity:1;fill:#000000;fill-opacity:1"
         d="M 0.0,0.0 L 5.0,-5.0 L -12.5,0.0 L 5.0,5.0 L 0.0,0.0 z "
         id="path8001" /></marker><marker
       inkscape:collect="always"
       inkscape:stockid="Arrow2Mstart"
       orient="auto"
       refY="0.0"
       refX="0.0"
       id="marker10201"
       style="overflow:visible"
       inkscape:isstock="true"><path
         id="path10199"
         style="fill-rule:evenodd;stroke-width:0.625;stroke-linejoin:round;stroke:#000000;stroke-opacity:1;fill:#000000;fill-opacity:1"
         d="M 8.7185878,4.0337352 L -2.2072895,0.016013256 L 8.7185884,-4.0017078 C 6.9730900,-1.6296469 6.9831476,1.6157441 8.7185878,4.0337352 z "
         transform="scale(0.6) translate(0,0)" /></marker><marker
       inkscape:collect="always"
       inkscape:isstock="true"
       style="overflow:visible"
       id="marker8270"
       refX="0.0"
       refY="0.0"
       orient="auto"
       inkscape:stockid="Arrow2Mstart"><path
         transform="scale(0.6) translate(0,0)"
         d="M 8.7185878,4.0337352 L -2.2072895,0.016013256 L 8.7185884,-4.0017078 C 6.9730900,-1.6296469 6.9831476,1.6157441 8.7185878,4.0337352 z "
         style="fill-rule:evenodd;stroke-width:0.625;stroke-linejoin:round;stroke:#000000;stroke-opacity:1;fill:#000000;fill-opacity:1"
         id="path8268" /></marker><marker
       inkscape:isstock="true"
       style="overflow:visible"
       id="Arrow2Mstart"
       refX="0.0"
       refY="0.0"
       orient="auto"
       inkscape:stockid="Arrow2Mstart"><path
         transform="scale(0.6) translate(0,0)"
         d="M 8.7185878,4.0337352 L -2.2072895,0.016013256 L 8.7185884,-4.0017078 C 6.9730900,-1.6296469 6.9831476,1.6157441 8.7185878,4.0337352 z "
         style="fill-rule:evenodd;stroke-width:0.625;stroke-linejoin:round;stroke:#000000;stroke-opacity:1;fill:#000000;fill-opacity:1"
         id="path8016" /></marker></defs><g
     id="g10"
     inkscape:groupmode="layer"
     inkscape:label="ink_ext_XXXXXX"
     transform="matrix(1.3333333,0,0,-1.3333333,0,540)"><g
       id="g12"
       transform="matrix(0.12088894,0,0,0.11015373,-0.26636435,-0.00150093)"><path
         d="M 744.29588,2646.0321 V 298.82904"
         style="fill:none;stroke:#000000;stroke-width:19.4280014;stroke-linecap:butt;stroke-linejoin:miter;stroke-miterlimit:4;stroke-dasharray:none;stroke-opacity:1;marker-start:url(#marker8270)"
         id="path14"
         inkscape:connector-curvature="0" /><path
         d="M 3324.4275,298.82904 H 744.29588"
         style="fill:none;stroke:#000000;stroke-width:19.42648829;stroke-linecap:butt;stroke-linejoin:miter;stroke-miterlimit:4;stroke-dasharray:none;stroke-opacity:1;marker-start:url(#Arrow2Mstart)"
         id="path20"
         inkscape:connector-curvature="0" /><path
         d="M 1444.5419,2548.2702 V 566.13747"
         style="fill:none;stroke:#000000;stroke-width:4.4219283;stroke-linecap:butt;stroke-linejoin:miter;stroke-miterlimit:4;stroke-dasharray:none;stroke-opacity:1"
         id="path28"
         inkscape:connector-curvature="0" /><path
         d="M 887.08189,1061.6706 H 3133.6888"
         style="fill:none;stroke:#000000;stroke-width:2.12722244;stroke-linecap:butt;stroke-linejoin:miter;stroke-miterlimit:4;stroke-dasharray:none;stroke-opacity:1"
         id="path34"
         inkscape:connector-curvature="0" /><path
         d="M 887.08189,1557.204 H 3133.6888"
         style="fill:none;stroke:#000000;stroke-width:2.12722244;stroke-linecap:butt;stroke-linejoin:miter;stroke-miterlimit:4;stroke-dasharray:none;stroke-opacity:1"
         id="path36"
         inkscape:connector-curvature="0" /><path
         d="M 887.08189,2052.737 H 3133.6888"
         style="fill:none;stroke:#000000;stroke-width:2.12722244;stroke-linecap:butt;stroke-linejoin:miter;stroke-miterlimit:4;stroke-dasharray:none;stroke-opacity:1"
         id="path38"
         inkscape:connector-curvature="0" /><path
         d="M 2005.8351,2548.2702 V 566.13747"
         style="fill:none;stroke:#000000;stroke-width:4.4219283;stroke-linecap:butt;stroke-linejoin:miter;stroke-miterlimit:4;stroke-dasharray:none;stroke-opacity:1"
         id="path4868"
         inkscape:connector-curvature="0" /><path
         d="M 2567.1284,2548.2702 V 566.13747"
         style="fill:none;stroke:#000000;stroke-width:4.4219283;stroke-linecap:butt;stroke-linejoin:miter;stroke-miterlimit:4;stroke-dasharray:none;stroke-opacity:1"
         id="path4870"
         inkscape:connector-curvature="0" /></g><ellipse
       style="fill:#000000;stroke-width:1.55905509;stroke-miterlimit:4;stroke-dasharray:none"
       id="path5697"
       cx="242.2169"
       cy="-171.53032"
       transform="scale(1,-1)"
       rx="1.8985579"
       ry="2.2249732" /><ellipse
       style="fill:#000000;stroke-width:1.55905509;stroke-miterlimit:4;stroke-dasharray:none"
       id="path5699"
       cx="310.07108"
       cy="-171.53032"
       transform="scale(1,-1)"
       rx="2.0175233"
       ry="2.2230036" /><ellipse
       style="fill:#000000;stroke-width:1.55905509;stroke-miterlimit:4;stroke-dasharray:none"
       id="path5709"
       transform="scale(1,-1)"
       ry="2.0104606"
       rx="1.9666791"
       cy="-171.53032"
       cx="174.36278" /><ellipse
       style="fill:#000000;stroke-width:1.55905509;stroke-miterlimit:4;stroke-dasharray:none"
       id="path5697-7"
       cx="242.13123"
       cy="-226.09639"
       rx="1.8985579"
       ry="2.2249732"
       transform="scale(1,-1)" /><ellipse
       transform="scale(1,-1)"
       ry="2.2249732"
       rx="1.8985579"
       cy="-226.09639"
       cx="310.00955"
       id="ellipse5744"
       style="fill:#000000;stroke-width:1.55905509;stroke-miterlimit:4;stroke-dasharray:none" /><ellipse
       transform="scale(1,-1)"
       ry="2.2249732"
       rx="1.8985579"
       cy="-226.09639"
       cx="174.3452"
       id="ellipse5746"
       style="fill:#000000;stroke-width:1.55905509;stroke-miterlimit:4;stroke-dasharray:none" /><ellipse
       ry="2.2249732"
       rx="1.8985579"
       transform="scale(1,-1)"
       cy="-116.82957"
       cx="242.2169"
       id="ellipse5748"
       style="fill:#000000;stroke-width:1.55905509;stroke-miterlimit:4;stroke-dasharray:none" /><ellipse
       style="fill:#000000;stroke-width:1.55905509;stroke-miterlimit:4;stroke-dasharray:none"
       id="ellipse5750"
       cx="174.43088"
       cy="-116.82957"
       transform="scale(1,-1)"
       rx="1.8985579"
       ry="2.2249732" /><ellipse
       style="fill:#000000;stroke-width:1.55905509;stroke-miterlimit:4;stroke-dasharray:none"
       id="ellipse5752"
       cx="310.21744"
       cy="-116.82957"
       transform="scale(1,-1)"
       rx="1.8985579"
       ry="2.2249732" /></g><g
     id="g9610"
     ns0:preamble="/home/cardoso/Documents/Tesis/Imagenes/preambulo-inkscape.txt"
     ns0:text="$x$"
     transform="matrix(1.8,0,0,1.8,105.78851,271.85286)"><defs
       id="defs9603"><g
         id="g9601"><symbol
           id="textext-d97220c0-0"
           overflow="visible"
           style="overflow:visible"><path
             id="path9595"
             d=""
             style="stroke:none"
             inkscape:connector-curvature="0" /></symbol><symbol
           id="textext-d97220c0-1"
           overflow="visible"
           style="overflow:visible"><path
             id="path9598"
             d="M 4,-1.109375 C 3.921875,-1.015625 3.875,-0.953125 3.78125,-0.84375 3.5625,-0.53125 3.4375,-0.4375 3.328125,-0.4375 3.1875,-0.4375 3.09375,-0.5625 3.015625,-0.84375 3,-0.921875 2.984375,-0.984375 2.984375,-1.015625 2.734375,-2.03125 2.625,-2.484375 2.625,-2.625 c 0.4375,-0.78125 0.796875,-1.21875 0.96875,-1.21875 0.0625,0 0.140625,0.03125 0.25,0.078125 0.109375,0.078125 0.1875,0.09375 0.265625,0.09375 0.203125,0 0.34375,-0.140625 0.34375,-0.359375 0,-0.203125 -0.171875,-0.359375 -0.40625,-0.359375 -0.4375,0 -0.8125,0.359375 -1.5,1.421875 L 2.4375,-3.515625 c -0.140625,-0.6875 -0.25,-0.875 -0.53125,-0.875 -0.21875,0 -0.546875,0.078125 -1.15625,0.28125 L 0.640625,-4.0625 0.671875,-3.921875 C 1.0625,-4 1.140625,-4.03125 1.234375,-4.03125 c 0.25,0 0.3125,0.09375 0.453125,0.6875 l 0.28125,1.234375 -0.8125,1.15625 C 0.953125,-0.640625 0.75,-0.46875 0.640625,-0.46875 0.59375,-0.46875 0.484375,-0.5 0.390625,-0.5625 0.265625,-0.625 0.15625,-0.65625 0.0625,-0.65625 c -0.1875,0 -0.328125,0.140625 -0.328125,0.34375 0,0.265625 0.203125,0.421875 0.5,0.421875 0.296875,0 0.421875,-0.09375 0.921875,-0.703125 0.265625,-0.3125 0.484375,-0.578125 0.890625,-1.15625 l 0.3125,1.1875 c 0.125,0.515625 0.25,0.671875 0.578125,0.671875 0.375,0 0.625,-0.234375 1.203125,-1.140625 z m 0,0"
             style="stroke:none"
             inkscape:connector-curvature="0" /></symbol></g></defs><g
       id="textext-d97220c0-2"><g
         id="g9607"
         style="fill:#000000;fill-opacity:1"><use
           id="use9605"
           y="134.765"
           x="223.43201"
           xlink:href="#textext-d97220c0-1"
           width="100%"
           height="100%" /></g></g></g><g
     transform="matrix(1.8,0,0,1.8,-302.83097,-74.021496)"
     ns0:text="$y$"
     ns0:preamble="/home/cardoso/Documents/Tesis/Imagenes/preambulo-inkscape.txt"
     id="g9995"><defs
       id="defs9988"><g
         id="g9986"><symbol
           style="overflow:visible"
           overflow="visible"
           id="textext-a6197aea-0"><path
             inkscape:connector-curvature="0"
             style="stroke:none"
             d=""
             id="path9980" /></symbol><symbol
           style="overflow:visible"
           overflow="visible"
           id="textext-a6197aea-1"><path
             inkscape:connector-curvature="0"
             style="stroke:none"
             d="m 0.15625,-3.984375 c 0.125,-0.03125 0.1875,-0.046875 0.296875,-0.046875 0.578125,0 0.71875,0.25 1.1875,1.96875 0.15625,0.640625 0.40625,1.8125 0.40625,1.984375 0,0.15625 -0.0625,0.3125 -0.21875,0.5 -0.296875,0.40625 -0.5,0.671875 -0.609375,0.78125 C 1,1.421875 0.890625,1.5 0.75,1.5 0.703125,1.5 0.625,1.46875 0.515625,1.390625 0.375,1.28125 0.265625,1.21875 0.15625,1.21875 c -0.21875,0 -0.390625,0.171875 -0.390625,0.390625 0,0.25 0.21875,0.4375 0.5,0.4375 0.640625,0 1.953125,-1.484375 3.03125,-3.46875 C 3.96875,-2.640625 4.25,-3.359375 4.25,-3.84375 4.25,-4.140625 4,-4.390625 3.703125,-4.390625 3.46875,-4.390625 3.3125,-4.25 3.3125,-4.03125 c 0,0.15625 0.078125,0.265625 0.28125,0.390625 0.1875,0.109375 0.25,0.203125 0.25,0.34375 0,0.390625 -0.359375,1.171875 -1.21875,2.578125 L 2.4375,-1.875 C 2.28125,-2.75 1.71875,-4.390625 1.578125,-4.390625 H 1.53125 c 0,0 -0.046875,0 -0.078125,0 C 1.359375,-4.375 1,-4.3125 0.46875,-4.21875 c -0.046875,0.015625 -0.171875,0.046875 -0.3125,0.0625 z m 0,0"
             id="path9983" /></symbol></g></defs><g
       id="textext-a6197aea-2"><g
         style="fill:#000000;fill-opacity:1"
         id="g9992"><use
           height="100%"
           width="100%"
           xlink:href="#textext-a6197aea-1"
           x="223.43201"
           y="134.765"
           id="use9990" /></g></g></g><path
     inkscape:connector-curvature="0"
     id="path10191"
     d="M 521.05223,238.51316 V 311.2929"
     style="fill:none;stroke:#000000;stroke-width:0.7;stroke-linecap:butt;stroke-linejoin:miter;stroke-opacity:1;stroke-miterlimit:4;stroke-dasharray:none;marker-start:url(#marker10201);marker-end:url(#Arrow1Mend)" /><path
     style="fill:none;stroke:#000000;stroke-width:0.7;stroke-linecap:butt;stroke-linejoin:miter;stroke-miterlimit:4;stroke-dasharray:none;stroke-opacity:1;marker-start:url(#marker10257);marker-end:url(#marker10267)"
     d="M 405.43422,158.20812 H 332.65448"
     id="path10253"
     inkscape:connector-curvature="0" /><g
     id="g6334"
     ns0:preamble="/home/cardoso/Documents/Tesis/Imagenes/preambulo-inkscape.txt"
     ns0:text="$i,j$"
     transform="matrix(1.4,0,0,1.4,-16.882392,135.28602)"><defs
       id="defs6319"><g
         id="g6317"><symbol
           id="textext-bc639cc0-0"
           overflow="visible"
           style="overflow:visible"><path
             id="path6302"
             d=""
             style="stroke:none"
             inkscape:connector-curvature="0" /></symbol><symbol
           id="textext-bc639cc0-1"
           overflow="visible"
           style="overflow:visible"><path
             id="path6305"
             d="m 2.21875,-1.140625 c -0.25,0.328125 -0.3125,0.40625 -0.421875,0.515625 -0.15625,0.171875 -0.3125,0.265625 -0.40625,0.265625 -0.078125,0 -0.15625,-0.078125 -0.15625,-0.15625 0,-0.09375 0.03125,-0.234375 0.09375,-0.4375 0,-0.03125 0.03125,-0.09375 0.0625,-0.171875 V -1.171875 L 2.265625,-4.375 2.25,-4.390625 c -1.015625,0.1875 -1.21875,0.21875 -1.609375,0.25 v 0.15625 c 0.53125,0 0.640625,0.03125 0.640625,0.234375 0,0.078125 -0.03125,0.234375 -0.09375,0.4375 l -0.484375,1.765625 c -0.15625,0.578125 -0.21875,0.890625 -0.21875,1.09375 0,0.359375 0.15625,0.5625 0.46875,0.5625 0.453125,0 0.828125,-0.296875 1.390625,-1.140625 z m -0.078125,-5.375 c -0.28125,0 -0.46875,0.21875 -0.46875,0.53125 0,0.3125 0.1875,0.515625 0.46875,0.515625 0.265625,0 0.484375,-0.21875 0.484375,-0.5 0,-0.296875 -0.21875,-0.546875 -0.484375,-0.546875 z m 0,0"
             style="stroke:none"
             inkscape:connector-curvature="0" /></symbol><symbol
           id="textext-bc639cc0-2"
           overflow="visible"
           style="overflow:visible"><path
             id="path6308"
             d="m 2.453125,-4.375 -0.03125,-0.015625 c -0.890625,0.15625 -1.390625,0.234375 -1.6875,0.25 v 0.15625 H 1 L 1.0625,-4 c 0.078125,0 0.28125,0.046875 0.328125,0.09375 0.046875,0.03125 0.078125,0.125 0.078125,0.234375 0,0.09375 -0.046875,0.359375 -0.15625,0.796875 L 0.59375,0.03125 C 0.25,1.390625 0.015625,1.828125 -0.375,1.828125 c -0.125,0 -0.1875,-0.03125 -0.1875,-0.109375 0,-0.03125 0.015625,-0.046875 0.046875,-0.109375 0.0625,-0.078125 0.09375,-0.125 0.09375,-0.203125 0,-0.203125 -0.1875,-0.375 -0.421875,-0.375 -0.21875,0 -0.390625,0.1875 -0.390625,0.421875 0,0.34375 0.328125,0.609375 0.78125,0.609375 0.875,0 1.46875,-0.75 1.875,-2.34375 z M 2.25,-6.515625 c -0.265625,0 -0.46875,0.21875 -0.46875,0.53125 0,0.3125 0.1875,0.515625 0.484375,0.515625 0.25,0 0.484375,-0.21875 0.484375,-0.5 0,-0.296875 -0.234375,-0.546875 -0.5,-0.546875 z m 0,0"
             style="stroke:none"
             inkscape:connector-curvature="0" /></symbol><symbol
           id="textext-bc639cc0-3"
           overflow="visible"
           style="overflow:visible"><path
             id="path6311"
             d=""
             style="stroke:none"
             inkscape:connector-curvature="0" /></symbol><symbol
           id="textext-bc639cc0-4"
           overflow="visible"
           style="overflow:visible"><path
             id="path6314"
             d="m 2.03125,-0.015625 c 0,-0.65625 -0.25,-1.046875 -0.640625,-1.046875 -0.328125,0 -0.53125,0.25 -0.53125,0.53125 C 0.859375,-0.265625 1.0625,0 1.390625,0 1.5,0 1.640625,-0.046875 1.734375,-0.125 1.765625,-0.15625 1.78125,-0.15625 1.78125,-0.15625 c 0.015625,0 0.015625,0 0.015625,0.140625 0,0.75 -0.34375,1.34375 -0.671875,1.671875 -0.109375,0.109375 -0.109375,0.125 -0.109375,0.15625 0,0.078125 0.046875,0.109375 0.09375,0.109375 0.109375,0 0.921875,-0.765625 0.921875,-1.9375 z m 0,0"
             style="stroke:none"
             inkscape:connector-curvature="0" /></symbol></g></defs><g
       id="textext-bc639cc0-5"><g
         id="g6323"
         style="fill:#000000;fill-opacity:1"><use
           id="use6321"
           y="134.765"
           x="223.43201"
           xlink:href="#textext-bc639cc0-1"
           width="100%"
           height="100%" /></g><g
         id="g6327"
         style="fill:#000000;fill-opacity:1"><use
           id="use6325"
           y="134.765"
           x="226.202"
           xlink:href="#textext-bc639cc0-4"
           width="100%"
           height="100%" /></g><g
         id="g6331"
         style="fill:#000000;fill-opacity:1"><use
           id="use6329"
           y="134.765"
           x="231.562"
           xlink:href="#textext-bc639cc0-2"
           width="100%"
           height="100%" /></g></g></g><g
     transform="matrix(1.4,0,0,1.4,-27.17161,62.923729)"
     ns0:text="$i,j+1$"
     ns0:preamble="/home/cardoso/Documents/Tesis/Imagenes/preambulo-inkscape.txt"
     id="g6604"><defs
       id="defs6581"><g
         id="g6579"><symbol
           style="overflow:visible"
           overflow="visible"
           id="textext-869c9491-0"><path
             inkscape:connector-curvature="0"
             style="stroke:none"
             d=""
             id="path6552" /></symbol><symbol
           style="overflow:visible"
           overflow="visible"
           id="textext-869c9491-1"><path
             inkscape:connector-curvature="0"
             style="stroke:none"
             d="m 2.21875,-1.140625 c -0.25,0.328125 -0.3125,0.40625 -0.421875,0.515625 -0.15625,0.171875 -0.3125,0.265625 -0.40625,0.265625 -0.078125,0 -0.15625,-0.078125 -0.15625,-0.15625 0,-0.09375 0.03125,-0.234375 0.09375,-0.4375 0,-0.03125 0.03125,-0.09375 0.0625,-0.171875 V -1.171875 L 2.265625,-4.375 2.25,-4.390625 c -1.015625,0.1875 -1.21875,0.21875 -1.609375,0.25 v 0.15625 c 0.53125,0 0.640625,0.03125 0.640625,0.234375 0,0.078125 -0.03125,0.234375 -0.09375,0.4375 l -0.484375,1.765625 c -0.15625,0.578125 -0.21875,0.890625 -0.21875,1.09375 0,0.359375 0.15625,0.5625 0.46875,0.5625 0.453125,0 0.828125,-0.296875 1.390625,-1.140625 z m -0.078125,-5.375 c -0.28125,0 -0.46875,0.21875 -0.46875,0.53125 0,0.3125 0.1875,0.515625 0.46875,0.515625 0.265625,0 0.484375,-0.21875 0.484375,-0.5 0,-0.296875 -0.21875,-0.546875 -0.484375,-0.546875 z m 0,0"
             id="path6555" /></symbol><symbol
           style="overflow:visible"
           overflow="visible"
           id="textext-869c9491-2"><path
             inkscape:connector-curvature="0"
             style="stroke:none"
             d="m 2.453125,-4.375 -0.03125,-0.015625 c -0.890625,0.15625 -1.390625,0.234375 -1.6875,0.25 v 0.15625 H 1 L 1.0625,-4 c 0.078125,0 0.28125,0.046875 0.328125,0.09375 0.046875,0.03125 0.078125,0.125 0.078125,0.234375 0,0.09375 -0.046875,0.359375 -0.15625,0.796875 L 0.59375,0.03125 C 0.25,1.390625 0.015625,1.828125 -0.375,1.828125 c -0.125,0 -0.1875,-0.03125 -0.1875,-0.109375 0,-0.03125 0.015625,-0.046875 0.046875,-0.109375 0.0625,-0.078125 0.09375,-0.125 0.09375,-0.203125 0,-0.203125 -0.1875,-0.375 -0.421875,-0.375 -0.21875,0 -0.390625,0.1875 -0.390625,0.421875 0,0.34375 0.328125,0.609375 0.78125,0.609375 0.875,0 1.46875,-0.75 1.875,-2.34375 z M 2.25,-6.515625 c -0.265625,0 -0.46875,0.21875 -0.46875,0.53125 0,0.3125 0.1875,0.515625 0.484375,0.515625 0.25,0 0.484375,-0.21875 0.484375,-0.5 0,-0.296875 -0.234375,-0.546875 -0.5,-0.546875 z m 0,0"
             id="path6558" /></symbol><symbol
           style="overflow:visible"
           overflow="visible"
           id="textext-869c9491-3"><path
             inkscape:connector-curvature="0"
             style="stroke:none"
             d=""
             id="path6561" /></symbol><symbol
           style="overflow:visible"
           overflow="visible"
           id="textext-869c9491-4"><path
             inkscape:connector-curvature="0"
             style="stroke:none"
             d="m 2.03125,-0.015625 c 0,-0.65625 -0.25,-1.046875 -0.640625,-1.046875 -0.328125,0 -0.53125,0.25 -0.53125,0.53125 C 0.859375,-0.265625 1.0625,0 1.390625,0 1.5,0 1.640625,-0.046875 1.734375,-0.125 1.765625,-0.15625 1.78125,-0.15625 1.78125,-0.15625 c 0.015625,0 0.015625,0 0.015625,0.140625 0,0.75 -0.34375,1.34375 -0.671875,1.671875 -0.109375,0.109375 -0.109375,0.125 -0.109375,0.15625 0,0.078125 0.046875,0.109375 0.09375,0.109375 0.109375,0 0.921875,-0.765625 0.921875,-1.9375 z m 0,0"
             id="path6564" /></symbol><symbol
           style="overflow:visible"
           overflow="visible"
           id="textext-869c9491-5"><path
             inkscape:connector-curvature="0"
             style="stroke:none"
             d=""
             id="path6567" /></symbol><symbol
           style="overflow:visible"
           overflow="visible"
           id="textext-869c9491-6"><path
             inkscape:connector-curvature="0"
             style="stroke:none"
             d="m 4.078125,-2.296875 h 2.78125 C 7,-2.296875 7.1875,-2.296875 7.1875,-2.5 7.1875,-2.6875 7,-2.6875 6.859375,-2.6875 h -2.78125 v -2.796875 c 0,-0.140625 0,-0.328125 -0.203125,-0.328125 -0.203125,0 -0.203125,0.1875 -0.203125,0.328125 V -2.6875 h -2.78125 c -0.140625,0 -0.328125,0 -0.328125,0.1875 0,0.203125 0.1875,0.203125 0.328125,0.203125 h 2.78125 V 0.5 c 0,0.140625 0,0.328125 0.203125,0.328125 0.203125,0 0.203125,-0.1875 0.203125,-0.328125 z m 0,0"
             id="path6570" /></symbol><symbol
           style="overflow:visible"
           overflow="visible"
           id="textext-869c9491-7"><path
             inkscape:connector-curvature="0"
             style="stroke:none"
             d=""
             id="path6573" /></symbol><symbol
           style="overflow:visible"
           overflow="visible"
           id="textext-869c9491-8"><path
             inkscape:connector-curvature="0"
             style="stroke:none"
             d="m 2.90625,-6.734375 -1.796875,0.90625 V -5.6875 C 1.21875,-5.734375 1.328125,-5.78125 1.375,-5.796875 1.5625,-5.875 1.71875,-5.90625 1.828125,-5.90625 2.03125,-5.90625 2.125,-5.765625 2.125,-5.4375 v 4.515625 c 0,0.328125 -0.078125,0.546875 -0.234375,0.640625 -0.15625,0.09375 -0.296875,0.125 -0.71875,0.125 V 0 h 2.75 v -0.15625 c -0.78125,0 -0.9375,-0.109375 -0.9375,-0.578125 V -6.71875 Z m 0,0"
             id="path6576" /></symbol></g></defs><g
       id="textext-869c9491-9"><g
         style="fill:#000000;fill-opacity:1"
         id="g6585"><use
           height="100%"
           width="100%"
           xlink:href="#textext-869c9491-1"
           x="223.43201"
           y="134.765"
           id="use6583" /></g><g
         style="fill:#000000;fill-opacity:1"
         id="g6589"><use
           height="100%"
           width="100%"
           xlink:href="#textext-869c9491-4"
           x="226.202"
           y="134.765"
           id="use6587" /></g><g
         style="fill:#000000;fill-opacity:1"
         id="g6593"><use
           height="100%"
           width="100%"
           xlink:href="#textext-869c9491-2"
           x="231.562"
           y="134.765"
           id="use6591" /></g><g
         style="fill:#000000;fill-opacity:1"
         id="g6597"><use
           height="100%"
           width="100%"
           xlink:href="#textext-869c9491-6"
           x="235.965"
           y="134.765"
           id="use6595" /></g><g
         style="fill:#000000;fill-opacity:1"
         id="g6601"><use
           height="100%"
           width="100%"
           xlink:href="#textext-869c9491-8"
           x="245.089"
           y="134.765"
           id="use6599" /></g></g></g><g
     id="g6938"
     ns0:preamble="/home/cardoso/Documents/Tesis/Imagenes/preambulo-inkscape.txt"
     ns0:text="$i,j-1$"
     transform="matrix(1.4,0,0,1.4,-27.17161,208.22034)"><defs
       id="defs6915"><g
         id="g6913"><symbol
           id="textext-061a72bd-0"
           overflow="visible"
           style="overflow:visible"><path
             id="path6886"
             d=""
             style="stroke:none"
             inkscape:connector-curvature="0" /></symbol><symbol
           id="textext-061a72bd-1"
           overflow="visible"
           style="overflow:visible"><path
             id="path6889"
             d="m 2.21875,-1.140625 c -0.25,0.328125 -0.3125,0.40625 -0.421875,0.515625 -0.15625,0.171875 -0.3125,0.265625 -0.40625,0.265625 -0.078125,0 -0.15625,-0.078125 -0.15625,-0.15625 0,-0.09375 0.03125,-0.234375 0.09375,-0.4375 0,-0.03125 0.03125,-0.09375 0.0625,-0.171875 V -1.171875 L 2.265625,-4.375 2.25,-4.390625 c -1.015625,0.1875 -1.21875,0.21875 -1.609375,0.25 v 0.15625 c 0.53125,0 0.640625,0.03125 0.640625,0.234375 0,0.078125 -0.03125,0.234375 -0.09375,0.4375 l -0.484375,1.765625 c -0.15625,0.578125 -0.21875,0.890625 -0.21875,1.09375 0,0.359375 0.15625,0.5625 0.46875,0.5625 0.453125,0 0.828125,-0.296875 1.390625,-1.140625 z m -0.078125,-5.375 c -0.28125,0 -0.46875,0.21875 -0.46875,0.53125 0,0.3125 0.1875,0.515625 0.46875,0.515625 0.265625,0 0.484375,-0.21875 0.484375,-0.5 0,-0.296875 -0.21875,-0.546875 -0.484375,-0.546875 z m 0,0"
             style="stroke:none"
             inkscape:connector-curvature="0" /></symbol><symbol
           id="textext-061a72bd-2"
           overflow="visible"
           style="overflow:visible"><path
             id="path6892"
             d="m 2.453125,-4.375 -0.03125,-0.015625 c -0.890625,0.15625 -1.390625,0.234375 -1.6875,0.25 v 0.15625 H 1 L 1.0625,-4 c 0.078125,0 0.28125,0.046875 0.328125,0.09375 0.046875,0.03125 0.078125,0.125 0.078125,0.234375 0,0.09375 -0.046875,0.359375 -0.15625,0.796875 L 0.59375,0.03125 C 0.25,1.390625 0.015625,1.828125 -0.375,1.828125 c -0.125,0 -0.1875,-0.03125 -0.1875,-0.109375 0,-0.03125 0.015625,-0.046875 0.046875,-0.109375 0.0625,-0.078125 0.09375,-0.125 0.09375,-0.203125 0,-0.203125 -0.1875,-0.375 -0.421875,-0.375 -0.21875,0 -0.390625,0.1875 -0.390625,0.421875 0,0.34375 0.328125,0.609375 0.78125,0.609375 0.875,0 1.46875,-0.75 1.875,-2.34375 z M 2.25,-6.515625 c -0.265625,0 -0.46875,0.21875 -0.46875,0.53125 0,0.3125 0.1875,0.515625 0.484375,0.515625 0.25,0 0.484375,-0.21875 0.484375,-0.5 0,-0.296875 -0.234375,-0.546875 -0.5,-0.546875 z m 0,0"
             style="stroke:none"
             inkscape:connector-curvature="0" /></symbol><symbol
           id="textext-061a72bd-3"
           overflow="visible"
           style="overflow:visible"><path
             id="path6895"
             d=""
             style="stroke:none"
             inkscape:connector-curvature="0" /></symbol><symbol
           id="textext-061a72bd-4"
           overflow="visible"
           style="overflow:visible"><path
             id="path6898"
             d="m 2.03125,-0.015625 c 0,-0.65625 -0.25,-1.046875 -0.640625,-1.046875 -0.328125,0 -0.53125,0.25 -0.53125,0.53125 C 0.859375,-0.265625 1.0625,0 1.390625,0 1.5,0 1.640625,-0.046875 1.734375,-0.125 1.765625,-0.15625 1.78125,-0.15625 1.78125,-0.15625 c 0.015625,0 0.015625,0 0.015625,0.140625 0,0.75 -0.34375,1.34375 -0.671875,1.671875 -0.109375,0.109375 -0.109375,0.125 -0.109375,0.15625 0,0.078125 0.046875,0.109375 0.09375,0.109375 0.109375,0 0.921875,-0.765625 0.921875,-1.9375 z m 0,0"
             style="stroke:none"
             inkscape:connector-curvature="0" /></symbol><symbol
           id="textext-061a72bd-5"
           overflow="visible"
           style="overflow:visible"><path
             id="path6901"
             d=""
             style="stroke:none"
             inkscape:connector-curvature="0" /></symbol><symbol
           id="textext-061a72bd-6"
           overflow="visible"
           style="overflow:visible"><path
             id="path6904"
             d="m 6.5625,-2.296875 c 0.171875,0 0.359375,0 0.359375,-0.203125 0,-0.1875 -0.1875,-0.1875 -0.359375,-0.1875 H 1.171875 c -0.171875,0 -0.34375,0 -0.34375,0.1875 0,0.203125 0.171875,0.203125 0.34375,0.203125 z m 0,0"
             style="stroke:none"
             inkscape:connector-curvature="0" /></symbol><symbol
           id="textext-061a72bd-7"
           overflow="visible"
           style="overflow:visible"><path
             id="path6907"
             d=""
             style="stroke:none"
             inkscape:connector-curvature="0" /></symbol><symbol
           id="textext-061a72bd-8"
           overflow="visible"
           style="overflow:visible"><path
             id="path6910"
             d="m 2.90625,-6.734375 -1.796875,0.90625 V -5.6875 C 1.21875,-5.734375 1.328125,-5.78125 1.375,-5.796875 1.5625,-5.875 1.71875,-5.90625 1.828125,-5.90625 2.03125,-5.90625 2.125,-5.765625 2.125,-5.4375 v 4.515625 c 0,0.328125 -0.078125,0.546875 -0.234375,0.640625 -0.15625,0.09375 -0.296875,0.125 -0.71875,0.125 V 0 h 2.75 v -0.15625 c -0.78125,0 -0.9375,-0.109375 -0.9375,-0.578125 V -6.71875 Z m 0,0"
             style="stroke:none"
             inkscape:connector-curvature="0" /></symbol></g></defs><g
       id="textext-061a72bd-9"><g
         id="g6919"
         style="fill:#000000;fill-opacity:1"><use
           id="use6917"
           y="134.765"
           x="223.43201"
           xlink:href="#textext-061a72bd-1"
           width="100%"
           height="100%" /></g><g
         id="g6923"
         style="fill:#000000;fill-opacity:1"><use
           id="use6921"
           y="134.765"
           x="226.202"
           xlink:href="#textext-061a72bd-4"
           width="100%"
           height="100%" /></g><g
         id="g6927"
         style="fill:#000000;fill-opacity:1"><use
           id="use6925"
           y="134.765"
           x="231.562"
           xlink:href="#textext-061a72bd-2"
           width="100%"
           height="100%" /></g><g
         id="g6931"
         style="fill:#000000;fill-opacity:1"><use
           id="use6929"
           y="134.765"
           x="235.965"
           xlink:href="#textext-061a72bd-6"
           width="100%"
           height="100%" /></g><g
         id="g6935"
         style="fill:#000000;fill-opacity:1"><use
           id="use6933"
           y="134.765"
           x="245.089"
           xlink:href="#textext-061a72bd-8"
           width="100%"
           height="100%" /></g></g></g><g
     transform="matrix(1.4,0,0,1.4,-120.12712,135.43915)"
     ns0:text="$i-1,j$"
     ns0:preamble="/home/cardoso/Documents/Tesis/Imagenes/preambulo-inkscape.txt"
     id="g7336"><defs
       id="defs7313"><g
         id="g7311"><symbol
           style="overflow:visible"
           overflow="visible"
           id="textext-3b0434e9-0"><path
             inkscape:connector-curvature="0"
             style="stroke:none"
             d=""
             id="path7284" /></symbol><symbol
           style="overflow:visible"
           overflow="visible"
           id="textext-3b0434e9-1"><path
             inkscape:connector-curvature="0"
             style="stroke:none"
             d="m 2.21875,-1.140625 c -0.25,0.328125 -0.3125,0.40625 -0.421875,0.515625 -0.15625,0.171875 -0.3125,0.265625 -0.40625,0.265625 -0.078125,0 -0.15625,-0.078125 -0.15625,-0.15625 0,-0.09375 0.03125,-0.234375 0.09375,-0.4375 0,-0.03125 0.03125,-0.09375 0.0625,-0.171875 V -1.171875 L 2.265625,-4.375 2.25,-4.390625 c -1.015625,0.1875 -1.21875,0.21875 -1.609375,0.25 v 0.15625 c 0.53125,0 0.640625,0.03125 0.640625,0.234375 0,0.078125 -0.03125,0.234375 -0.09375,0.4375 l -0.484375,1.765625 c -0.15625,0.578125 -0.21875,0.890625 -0.21875,1.09375 0,0.359375 0.15625,0.5625 0.46875,0.5625 0.453125,0 0.828125,-0.296875 1.390625,-1.140625 z m -0.078125,-5.375 c -0.28125,0 -0.46875,0.21875 -0.46875,0.53125 0,0.3125 0.1875,0.515625 0.46875,0.515625 0.265625,0 0.484375,-0.21875 0.484375,-0.5 0,-0.296875 -0.21875,-0.546875 -0.484375,-0.546875 z m 0,0"
             id="path7287" /></symbol><symbol
           style="overflow:visible"
           overflow="visible"
           id="textext-3b0434e9-2"><path
             inkscape:connector-curvature="0"
             style="stroke:none"
             d="m 2.453125,-4.375 -0.03125,-0.015625 c -0.890625,0.15625 -1.390625,0.234375 -1.6875,0.25 v 0.15625 H 1 L 1.0625,-4 c 0.078125,0 0.28125,0.046875 0.328125,0.09375 0.046875,0.03125 0.078125,0.125 0.078125,0.234375 0,0.09375 -0.046875,0.359375 -0.15625,0.796875 L 0.59375,0.03125 C 0.25,1.390625 0.015625,1.828125 -0.375,1.828125 c -0.125,0 -0.1875,-0.03125 -0.1875,-0.109375 0,-0.03125 0.015625,-0.046875 0.046875,-0.109375 0.0625,-0.078125 0.09375,-0.125 0.09375,-0.203125 0,-0.203125 -0.1875,-0.375 -0.421875,-0.375 -0.21875,0 -0.390625,0.1875 -0.390625,0.421875 0,0.34375 0.328125,0.609375 0.78125,0.609375 0.875,0 1.46875,-0.75 1.875,-2.34375 z M 2.25,-6.515625 c -0.265625,0 -0.46875,0.21875 -0.46875,0.53125 0,0.3125 0.1875,0.515625 0.484375,0.515625 0.25,0 0.484375,-0.21875 0.484375,-0.5 0,-0.296875 -0.234375,-0.546875 -0.5,-0.546875 z m 0,0"
             id="path7290" /></symbol><symbol
           style="overflow:visible"
           overflow="visible"
           id="textext-3b0434e9-3"><path
             inkscape:connector-curvature="0"
             style="stroke:none"
             d=""
             id="path7293" /></symbol><symbol
           style="overflow:visible"
           overflow="visible"
           id="textext-3b0434e9-4"><path
             inkscape:connector-curvature="0"
             style="stroke:none"
             d="m 6.5625,-2.296875 c 0.171875,0 0.359375,0 0.359375,-0.203125 0,-0.1875 -0.1875,-0.1875 -0.359375,-0.1875 H 1.171875 c -0.171875,0 -0.34375,0 -0.34375,0.1875 0,0.203125 0.171875,0.203125 0.34375,0.203125 z m 0,0"
             id="path7296" /></symbol><symbol
           style="overflow:visible"
           overflow="visible"
           id="textext-3b0434e9-5"><path
             inkscape:connector-curvature="0"
             style="stroke:none"
             d=""
             id="path7299" /></symbol><symbol
           style="overflow:visible"
           overflow="visible"
           id="textext-3b0434e9-6"><path
             inkscape:connector-curvature="0"
             style="stroke:none"
             d="m 2.90625,-6.734375 -1.796875,0.90625 V -5.6875 C 1.21875,-5.734375 1.328125,-5.78125 1.375,-5.796875 1.5625,-5.875 1.71875,-5.90625 1.828125,-5.90625 2.03125,-5.90625 2.125,-5.765625 2.125,-5.4375 v 4.515625 c 0,0.328125 -0.078125,0.546875 -0.234375,0.640625 -0.15625,0.09375 -0.296875,0.125 -0.71875,0.125 V 0 h 2.75 v -0.15625 c -0.78125,0 -0.9375,-0.109375 -0.9375,-0.578125 V -6.71875 Z m 0,0"
             id="path7302" /></symbol><symbol
           style="overflow:visible"
           overflow="visible"
           id="textext-3b0434e9-7"><path
             inkscape:connector-curvature="0"
             style="stroke:none"
             d=""
             id="path7305" /></symbol><symbol
           style="overflow:visible"
           overflow="visible"
           id="textext-3b0434e9-8"><path
             inkscape:connector-curvature="0"
             style="stroke:none"
             d="m 2.03125,-0.015625 c 0,-0.65625 -0.25,-1.046875 -0.640625,-1.046875 -0.328125,0 -0.53125,0.25 -0.53125,0.53125 C 0.859375,-0.265625 1.0625,0 1.390625,0 1.5,0 1.640625,-0.046875 1.734375,-0.125 1.765625,-0.15625 1.78125,-0.15625 1.78125,-0.15625 c 0.015625,0 0.015625,0 0.015625,0.140625 0,0.75 -0.34375,1.34375 -0.671875,1.671875 -0.109375,0.109375 -0.109375,0.125 -0.109375,0.15625 0,0.078125 0.046875,0.109375 0.09375,0.109375 0.109375,0 0.921875,-0.765625 0.921875,-1.9375 z m 0,0"
             id="path7308" /></symbol></g></defs><g
       id="textext-3b0434e9-9"><g
         style="fill:#000000;fill-opacity:1"
         id="g7317"><use
           height="100%"
           width="100%"
           xlink:href="#textext-3b0434e9-1"
           x="223.43201"
           y="134.765"
           id="use7315" /></g><g
         style="fill:#000000;fill-opacity:1"
         id="g7321"><use
           height="100%"
           width="100%"
           xlink:href="#textext-3b0434e9-4"
           x="227.58501"
           y="134.765"
           id="use7319" /></g><g
         style="fill:#000000;fill-opacity:1"
         id="g7325"><use
           height="100%"
           width="100%"
           xlink:href="#textext-3b0434e9-6"
           x="236.71001"
           y="134.765"
           id="use7323" /></g><g
         style="fill:#000000;fill-opacity:1"
         id="g7329"><use
           height="100%"
           width="100%"
           xlink:href="#textext-3b0434e9-8"
           x="241.69099"
           y="134.765"
           id="use7327" /></g><g
         style="fill:#000000;fill-opacity:1"
         id="g7333"><use
           height="100%"
           width="100%"
           xlink:href="#textext-3b0434e9-2"
           x="247.052"
           y="134.765"
           id="use7331" /></g></g></g><g
     id="g7798"
     ns0:preamble="/home/cardoso/Documents/Tesis/Imagenes/preambulo-inkscape.txt"
     ns0:text="$i+1,j$"
     transform="matrix(1.4,0,0,1.4,60.06356,135.43915)"><defs
       id="defs7775"><g
         id="g7773"><symbol
           id="textext-2eb2c60b-0"
           overflow="visible"
           style="overflow:visible"><path
             id="path7746"
             d=""
             style="stroke:none"
             inkscape:connector-curvature="0" /></symbol><symbol
           id="textext-2eb2c60b-1"
           overflow="visible"
           style="overflow:visible"><path
             id="path7749"
             d="m 2.21875,-1.140625 c -0.25,0.328125 -0.3125,0.40625 -0.421875,0.515625 -0.15625,0.171875 -0.3125,0.265625 -0.40625,0.265625 -0.078125,0 -0.15625,-0.078125 -0.15625,-0.15625 0,-0.09375 0.03125,-0.234375 0.09375,-0.4375 0,-0.03125 0.03125,-0.09375 0.0625,-0.171875 V -1.171875 L 2.265625,-4.375 2.25,-4.390625 c -1.015625,0.1875 -1.21875,0.21875 -1.609375,0.25 v 0.15625 c 0.53125,0 0.640625,0.03125 0.640625,0.234375 0,0.078125 -0.03125,0.234375 -0.09375,0.4375 l -0.484375,1.765625 c -0.15625,0.578125 -0.21875,0.890625 -0.21875,1.09375 0,0.359375 0.15625,0.5625 0.46875,0.5625 0.453125,0 0.828125,-0.296875 1.390625,-1.140625 z m -0.078125,-5.375 c -0.28125,0 -0.46875,0.21875 -0.46875,0.53125 0,0.3125 0.1875,0.515625 0.46875,0.515625 0.265625,0 0.484375,-0.21875 0.484375,-0.5 0,-0.296875 -0.21875,-0.546875 -0.484375,-0.546875 z m 0,0"
             style="stroke:none"
             inkscape:connector-curvature="0" /></symbol><symbol
           id="textext-2eb2c60b-2"
           overflow="visible"
           style="overflow:visible"><path
             id="path7752"
             d="m 2.453125,-4.375 -0.03125,-0.015625 c -0.890625,0.15625 -1.390625,0.234375 -1.6875,0.25 v 0.15625 H 1 L 1.0625,-4 c 0.078125,0 0.28125,0.046875 0.328125,0.09375 0.046875,0.03125 0.078125,0.125 0.078125,0.234375 0,0.09375 -0.046875,0.359375 -0.15625,0.796875 L 0.59375,0.03125 C 0.25,1.390625 0.015625,1.828125 -0.375,1.828125 c -0.125,0 -0.1875,-0.03125 -0.1875,-0.109375 0,-0.03125 0.015625,-0.046875 0.046875,-0.109375 0.0625,-0.078125 0.09375,-0.125 0.09375,-0.203125 0,-0.203125 -0.1875,-0.375 -0.421875,-0.375 -0.21875,0 -0.390625,0.1875 -0.390625,0.421875 0,0.34375 0.328125,0.609375 0.78125,0.609375 0.875,0 1.46875,-0.75 1.875,-2.34375 z M 2.25,-6.515625 c -0.265625,0 -0.46875,0.21875 -0.46875,0.53125 0,0.3125 0.1875,0.515625 0.484375,0.515625 0.25,0 0.484375,-0.21875 0.484375,-0.5 0,-0.296875 -0.234375,-0.546875 -0.5,-0.546875 z m 0,0"
             style="stroke:none"
             inkscape:connector-curvature="0" /></symbol><symbol
           id="textext-2eb2c60b-3"
           overflow="visible"
           style="overflow:visible"><path
             id="path7755"
             d=""
             style="stroke:none"
             inkscape:connector-curvature="0" /></symbol><symbol
           id="textext-2eb2c60b-4"
           overflow="visible"
           style="overflow:visible"><path
             id="path7758"
             d="m 4.078125,-2.296875 h 2.78125 C 7,-2.296875 7.1875,-2.296875 7.1875,-2.5 7.1875,-2.6875 7,-2.6875 6.859375,-2.6875 h -2.78125 v -2.796875 c 0,-0.140625 0,-0.328125 -0.203125,-0.328125 -0.203125,0 -0.203125,0.1875 -0.203125,0.328125 V -2.6875 h -2.78125 c -0.140625,0 -0.328125,0 -0.328125,0.1875 0,0.203125 0.1875,0.203125 0.328125,0.203125 h 2.78125 V 0.5 c 0,0.140625 0,0.328125 0.203125,0.328125 0.203125,0 0.203125,-0.1875 0.203125,-0.328125 z m 0,0"
             style="stroke:none"
             inkscape:connector-curvature="0" /></symbol><symbol
           id="textext-2eb2c60b-5"
           overflow="visible"
           style="overflow:visible"><path
             id="path7761"
             d=""
             style="stroke:none"
             inkscape:connector-curvature="0" /></symbol><symbol
           id="textext-2eb2c60b-6"
           overflow="visible"
           style="overflow:visible"><path
             id="path7764"
             d="m 2.90625,-6.734375 -1.796875,0.90625 V -5.6875 C 1.21875,-5.734375 1.328125,-5.78125 1.375,-5.796875 1.5625,-5.875 1.71875,-5.90625 1.828125,-5.90625 2.03125,-5.90625 2.125,-5.765625 2.125,-5.4375 v 4.515625 c 0,0.328125 -0.078125,0.546875 -0.234375,0.640625 -0.15625,0.09375 -0.296875,0.125 -0.71875,0.125 V 0 h 2.75 v -0.15625 c -0.78125,0 -0.9375,-0.109375 -0.9375,-0.578125 V -6.71875 Z m 0,0"
             style="stroke:none"
             inkscape:connector-curvature="0" /></symbol><symbol
           id="textext-2eb2c60b-7"
           overflow="visible"
           style="overflow:visible"><path
             id="path7767"
             d=""
             style="stroke:none"
             inkscape:connector-curvature="0" /></symbol><symbol
           id="textext-2eb2c60b-8"
           overflow="visible"
           style="overflow:visible"><path
             id="path7770"
             d="m 2.03125,-0.015625 c 0,-0.65625 -0.25,-1.046875 -0.640625,-1.046875 -0.328125,0 -0.53125,0.25 -0.53125,0.53125 C 0.859375,-0.265625 1.0625,0 1.390625,0 1.5,0 1.640625,-0.046875 1.734375,-0.125 1.765625,-0.15625 1.78125,-0.15625 1.78125,-0.15625 c 0.015625,0 0.015625,0 0.015625,0.140625 0,0.75 -0.34375,1.34375 -0.671875,1.671875 -0.109375,0.109375 -0.109375,0.125 -0.109375,0.15625 0,0.078125 0.046875,0.109375 0.09375,0.109375 0.109375,0 0.921875,-0.765625 0.921875,-1.9375 z m 0,0"
             style="stroke:none"
             inkscape:connector-curvature="0" /></symbol></g></defs><g
       id="textext-2eb2c60b-9"><g
         id="g7779"
         style="fill:#000000;fill-opacity:1"><use
           id="use7777"
           y="134.765"
           x="223.43201"
           xlink:href="#textext-2eb2c60b-1"
           width="100%"
           height="100%" /></g><g
         id="g7783"
         style="fill:#000000;fill-opacity:1"><use
           id="use7781"
           y="134.765"
           x="227.58501"
           xlink:href="#textext-2eb2c60b-4"
           width="100%"
           height="100%" /></g><g
         id="g7787"
         style="fill:#000000;fill-opacity:1"><use
           id="use7785"
           y="134.765"
           x="236.71001"
           xlink:href="#textext-2eb2c60b-6"
           width="100%"
           height="100%" /></g><g
         id="g7791"
         style="fill:#000000;fill-opacity:1"><use
           id="use7789"
           y="134.765"
           x="241.69099"
           xlink:href="#textext-2eb2c60b-8"
           width="100%"
           height="100%" /></g><g
         id="g7795"
         style="fill:#000000;fill-opacity:1"><use
           id="use7793"
           y="134.765"
           x="247.052"
           xlink:href="#textext-2eb2c60b-2"
           width="100%"
           height="100%" /></g></g></g><g
     ns0:text="$\\Delta x$"
     ns0:preamble="/home/cardoso/Documents/Tesis/Imagenes/preambulo-inkscape.txt"
     transform="matrix(1.8,0,0,1.8,-42.616525,-97.53178)"
     id="g4995"><defs
       id="defs4984"><g
         id="g4982"><symbol
           overflow="visible"
           id="textext-f6a337ff-0"><path
             style="stroke:none;"
             d=""
             id="path4970" /></symbol><symbol
           overflow="visible"
           id="textext-f6a337ff-1"><path
             style="stroke:none;"
             d="M 0.0625 0 L 6.0625 0 L 3.265625 -6.859375 Z M 0.765625 -0.515625 L 2.890625 -5.078125 L 4.78125 -0.515625 Z M 0.765625 -0.515625 "
             id="path4973" /></symbol><symbol
           overflow="visible"
           id="textext-f6a337ff-2"><path
             style="stroke:none;"
             d=""
             id="path4976" /></symbol><symbol
           overflow="visible"
           id="textext-f6a337ff-3"><path
             style="stroke:none;"
             d="M 4 -1.109375 C 3.921875 -1.015625 3.875 -0.953125 3.78125 -0.84375 C 3.5625 -0.53125 3.4375 -0.4375 3.328125 -0.4375 C 3.1875 -0.4375 3.09375 -0.5625 3.015625 -0.84375 C 3 -0.921875 2.984375 -0.984375 2.984375 -1.015625 C 2.734375 -2.03125 2.625 -2.484375 2.625 -2.625 C 3.0625 -3.40625 3.421875 -3.84375 3.59375 -3.84375 C 3.65625 -3.84375 3.734375 -3.8125 3.84375 -3.765625 C 3.953125 -3.6875 4.03125 -3.671875 4.109375 -3.671875 C 4.3125 -3.671875 4.453125 -3.8125 4.453125 -4.03125 C 4.453125 -4.234375 4.28125 -4.390625 4.046875 -4.390625 C 3.609375 -4.390625 3.234375 -4.03125 2.546875 -2.96875 L 2.4375 -3.515625 C 2.296875 -4.203125 2.1875 -4.390625 1.90625 -4.390625 C 1.6875 -4.390625 1.359375 -4.3125 0.75 -4.109375 L 0.640625 -4.0625 L 0.671875 -3.921875 C 1.0625 -4 1.140625 -4.03125 1.234375 -4.03125 C 1.484375 -4.03125 1.546875 -3.9375 1.6875 -3.34375 L 1.96875 -2.109375 L 1.15625 -0.953125 C 0.953125 -0.640625 0.75 -0.46875 0.640625 -0.46875 C 0.59375 -0.46875 0.484375 -0.5 0.390625 -0.5625 C 0.265625 -0.625 0.15625 -0.65625 0.0625 -0.65625 C -0.125 -0.65625 -0.265625 -0.515625 -0.265625 -0.3125 C -0.265625 -0.046875 -0.0625 0.109375 0.234375 0.109375 C 0.53125 0.109375 0.65625 0.015625 1.15625 -0.59375 C 1.421875 -0.90625 1.640625 -1.171875 2.046875 -1.75 L 2.359375 -0.5625 C 2.484375 -0.046875 2.609375 0.109375 2.9375 0.109375 C 3.3125 0.109375 3.5625 -0.125 4.140625 -1.03125 Z M 4 -1.109375 "
             id="path4979" /></symbol></g></defs><g
       id="textext-f6a337ff-4"><g
         style="fill:rgb(0%,0%,0%);fill-opacity:1;"
         id="g4988"><use
           xlink:href="#textext-f6a337ff-1"
           x="223.432"
           y="134.765"
           id="use4986" /></g><g
         style="fill:rgb(0%,0%,0%);fill-opacity:1;"
         id="g4992"><use
           xlink:href="#textext-f6a337ff-3"
           x="229.529"
           y="134.765"
           id="use4990" /></g></g></g><g
     id="g5478"
     transform="matrix(1.8,0,0,1.8,129.8517,38.561626)"
     ns0:preamble="/home/cardoso/Documents/Tesis/Imagenes/preambulo-inkscape.txt"
     ns0:text="$\\Delta y$"><defs
       id="defs5467"><g
         id="g5465"><symbol
           id="textext-4b4943e1-0"
           overflow="visible"><path
             id="path5453"
             d=""
             style="stroke:none;" /></symbol><symbol
           id="textext-4b4943e1-1"
           overflow="visible"><path
             id="path5456"
             d="M 0.0625 0 L 6.0625 0 L 3.265625 -6.859375 Z M 0.765625 -0.515625 L 2.890625 -5.078125 L 4.78125 -0.515625 Z M 0.765625 -0.515625 "
             style="stroke:none;" /></symbol><symbol
           id="textext-4b4943e1-2"
           overflow="visible"><path
             id="path5459"
             d=""
             style="stroke:none;" /></symbol><symbol
           id="textext-4b4943e1-3"
           overflow="visible"><path
             id="path5462"
             d="M 0.15625 -3.984375 C 0.28125 -4.015625 0.34375 -4.03125 0.453125 -4.03125 C 1.03125 -4.03125 1.171875 -3.78125 1.640625 -2.0625 C 1.796875 -1.421875 2.046875 -0.25 2.046875 -0.078125 C 2.046875 0.078125 1.984375 0.234375 1.828125 0.421875 C 1.53125 0.828125 1.328125 1.09375 1.21875 1.203125 C 1 1.421875 0.890625 1.5 0.75 1.5 C 0.703125 1.5 0.625 1.46875 0.515625 1.390625 C 0.375 1.28125 0.265625 1.21875 0.15625 1.21875 C -0.0625 1.21875 -0.234375 1.390625 -0.234375 1.609375 C -0.234375 1.859375 -0.015625 2.046875 0.265625 2.046875 C 0.90625 2.046875 2.21875 0.5625 3.296875 -1.421875 C 3.96875 -2.640625 4.25 -3.359375 4.25 -3.84375 C 4.25 -4.140625 4 -4.390625 3.703125 -4.390625 C 3.46875 -4.390625 3.3125 -4.25 3.3125 -4.03125 C 3.3125 -3.875 3.390625 -3.765625 3.59375 -3.640625 C 3.78125 -3.53125 3.84375 -3.4375 3.84375 -3.296875 C 3.84375 -2.90625 3.484375 -2.125 2.625 -0.71875 L 2.4375 -1.875 C 2.28125 -2.75 1.71875 -4.390625 1.578125 -4.390625 L 1.53125 -4.390625 C 1.53125 -4.390625 1.484375 -4.390625 1.453125 -4.390625 C 1.359375 -4.375 1 -4.3125 0.46875 -4.21875 C 0.421875 -4.203125 0.296875 -4.171875 0.15625 -4.15625 Z M 0.15625 -3.984375 "
             style="stroke:none;" /></symbol></g></defs><g
       id="textext-4b4943e1-4"><g
         id="g5471"
         style="fill:rgb(0%,0%,0%);fill-opacity:1;"><use
           id="use5469"
           y="134.765"
           x="223.432"
           xlink:href="#textext-4b4943e1-1" /></g><g
         id="g5475"
         style="fill:rgb(0%,0%,0%);fill-opacity:1;"><use
           id="use5473"
           y="134.765"
           x="229.529"
           xlink:href="#textext-4b4943e1-3" /></g></g></g></svg>